<svg xmlns="http://www.w3.org/2000/svg" height="512pt" version="1.1" viewBox="-91 0 512 512" width="512pt">
<g id="surface1">
<path d="M 175.902344 4.203125 C 172.902344 1.5 169 0 165.097656 0 C 161.195312 0 157.292969 1.5 154.289062 4.203125 C 147.988281 10.804688 0 167.898438 0 255.851562 C 0 346.800781 74.140625 420.945312 165.097656 420.945312 C 256.050781 420.945312 330.195312 346.800781 330.195312 255.851562 C 330.195312 167.898438 182.207031 10.804688 175.902344 4.203125 Z M 175.902344 4.203125 " style=" stroke:none;fill-rule:nonzero;fill:rgb(72.54902%,86.666667%,22.352941%);fill-opacity:1;" />
<path d="M 330.195312 255.851562 C 330.195312 346.800781 256.050781 420.945312 165.097656 420.945312 L 165.097656 0 C 169 0 172.902344 1.5 175.902344 4.203125 C 182.207031 10.804688 330.195312 167.898438 330.195312 255.851562 Z M 330.195312 255.851562 " style=" stroke:none;fill-rule:nonzero;fill:rgb(65.882353%,82.745098%,16.470588%);fill-opacity:1;" />
<path d="M 265.65625 266.355469 L 180.105469 352.207031 L 180.105469 496.992188 C 180.105469 505.394531 173.503906 512 165.097656 512 C 156.691406 512 150.089844 505.394531 150.089844 496.992188 L 150.089844 352.207031 L 64.539062 266.355469 C 58.535156 260.652344 58.535156 251.046875 64.539062 245.34375 C 70.242188 239.339844 79.847656 239.339844 85.550781 245.34375 L 150.089844 309.582031 L 150.089844 262.152344 L 94.558594 206.320312 C 88.554688 200.617188 88.554688 191.011719 94.558594 185.304688 C 100.261719 179.304688 109.863281 179.304688 115.570312 185.304688 L 150.089844 219.527344 L 150.089844 135.78125 C 150.089844 127.375 156.691406 120.769531 165.097656 120.769531 C 173.503906 120.769531 180.109375 127.375 180.109375 135.78125 L 180.109375 219.527344 L 214.628906 185.308594 C 220.332031 179.304688 229.9375 179.304688 235.640625 185.308594 C 241.644531 191.011719 241.644531 200.617188 235.640625 206.320312 L 180.109375 262.152344 L 180.109375 309.582031 L 244.648438 245.34375 C 250.351562 239.339844 259.953125 239.339844 265.660156 245.34375 C 271.65625 251.046875 271.65625 260.652344 265.65625 266.355469 Z M 265.65625 266.355469 " style=" stroke:none;fill-rule:nonzero;fill:rgb(65.882353%,82.745098%,16.470588%);fill-opacity:1;" />
<path d="M 265.65625 266.355469 L 180.105469 352.207031 L 180.105469 496.992188 C 180.105469 505.394531 173.503906 512 165.097656 512 L 165.097656 120.769531 C 173.503906 120.769531 180.105469 127.375 180.105469 135.78125 L 180.105469 219.527344 L 214.625 185.308594 C 220.332031 179.304688 229.933594 179.304688 235.636719 185.308594 C 241.640625 191.011719 241.640625 200.617188 235.636719 206.320312 L 180.105469 262.152344 L 180.105469 309.582031 L 244.644531 245.34375 C 250.347656 239.339844 259.953125 239.339844 265.65625 245.34375 C 271.65625 251.046875 271.65625 260.652344 265.65625 266.355469 Z M 265.65625 266.355469 " style=" stroke:none;fill-rule:nonzero;fill:rgb(57.647059%,74.901961%,0%);fill-opacity:1;" />
</g>
</svg>