<?xml version="1.0" encoding="utf-8"?>
<!-- Generator: Adobe Illustrator 18.0.0, SVG Export Plug-In . SVG Version: 6.00 Build 0)  -->
<!DOCTYPE svg PUBLIC "-//W3C//DTD SVG 1.1//EN" "http://www.w3.org/Graphics/SVG/1.1/DTD/svg11.dtd">
<svg version="1.1" id="Capa_1" xmlns="http://www.w3.org/2000/svg" xmlns:xlink="http://www.w3.org/1999/xlink" x="0px" y="0px"
	 viewBox="0 0 283.5 283.5" enable-background="new 0 0 283.5 283.5" xml:space="preserve">
<linearGradient id="SVGID_1_" gradientUnits="userSpaceOnUse" x1="9.1041" y1="141.73" x2="274.3559" y2="141.73">
	<stop  offset="0" style="stop-color:#24F5AE"/>
	<stop  offset="1" style="stop-color:#29CDFF"/>
</linearGradient>
<path fill="url(#SVGID_1_)" d="M268.2,207.8c-7.1-11.1-24.6-17.9-44.9-25.7l-1.1-0.4c-5-1.9-10.1-3.9-15.2-6
	c-14.7-6.2-22.7-9.9-26.6-11.8l-0.2-16.7c3.3-3.8,8.6-11.9,11.3-26.4c1-0.4,2-1,2.9-1.6c6-4.2,10-12.7,10.4-18.6
	c0.1-1.7,0.6-17.1-6.7-23.4c-0.2-0.2-0.4-0.3-0.6-0.5c1.3-11,1.7-17.7,1.3-22c-2.2-22.7-24.2-46.1-57.2-46.1
	c-33,0-55,23.4-57.2,46.1c-0.4,4.4-0.1,11,1.3,22.1c-0.2,0.2-0.4,0.3-0.6,0.5c-7.7,6.7-6.7,23.4-6.7,23.4
	c0.4,5.8,4.3,14.3,10.4,18.5c0.9,0.7,1.9,1.2,2.9,1.6c2.7,14.6,8,22.6,11.4,26.4l-0.2,16.7c-3.8,1.9-11.7,5.6-26.6,11.8
	c-4.9,2.1-9.9,4-14.7,5.9l-1.6,0.6c-20.2,7.9-37.7,14.6-44.8,25.7C7.9,219.3,9,260.6,9.5,273l0.1,2l14.3-0.6l-0.1-2
	c-0.9-23.3,0.3-51.7,3.6-56.9c4.6-7.2,21.6-13.8,38-20.1c5.4-2.1,11-4.2,16.5-6.6c24.7-10.3,31.3-14.1,31.9-14.5l3.4-2.1l0.3-28.1
	l-0.1-3.4l-2.6-2.2c-0.3-0.3-7.3-6.7-9.6-25l-0.9-8.4l-7.4,2.1c-1.3-1-3.9-5.1-4.1-7.6c-0.2-4.1,0.5-8.5,1.3-10.7l7.9,1.7l-1.3-10
	c-1.1-8.2-2.5-19.7-2-24.7c1.6-16.3,18-33.1,42.9-33.1c24.9,0,41.3,16.9,42.9,33.2c0.5,5-0.9,16.5-2,24.7l-0.9,9.4l7.5-1.2
	c0.8,2.1,1.6,6.5,1.3,10.7c-0.1,2.4-2.7,6.4-4,7.6l-7.2-2.1l-1.1,8.3c-2.4,18.5-9.5,25-9.5,25l-2.8,2.2l0.3,31.6l3.4,2.1
	c0.7,0.4,7.2,4.2,31.9,14.5c5.7,2.4,11.3,4.6,16.6,6.6c16.4,6.4,33.4,13,38,20.1c3.3,5.2,4.5,33.6,3.6,56.9l-0.1,2l14.3,0.6l0.1-2
	C274.4,264.2,275.8,219.7,268.2,207.8z"/>
</svg>
