<?xml version="1.0" encoding="utf-8"?>
<!-- Generator: Adobe Illustrator 16.0.0, SVG Export Plug-In . SVG Version: 6.00 Build 0)  -->
<!DOCTYPE svg PUBLIC "-//W3C//DTD SVG 1.1//EN" "http://www.w3.org/Graphics/SVG/1.1/DTD/svg11.dtd">
<svg version="1.1" id="Capa_1" xmlns="http://www.w3.org/2000/svg" xmlns:xlink="http://www.w3.org/1999/xlink" x="0px" y="0px"
	 width="495.398px" height="495.398px" viewBox="0 0 495.398 495.398" enable-background="new 0 0 495.398 495.398"
	 xml:space="preserve">
<g>
	<g>
		<g>
			<path fill="#818181" d="M487.083,225.514l-75.079-75.08v-86.73c0-15.682-12.708-28.391-28.414-28.391
				c-15.669,0-28.377,12.709-28.377,28.391v29.941L299.31,37.74c-27.64-27.624-75.694-27.575-103.271,0.05L8.312,225.514
				c-11.082,11.104-11.082,29.07,0,40.157c11.087,11.102,29.089,11.102,40.172,0l187.71-187.729
				c6.115-6.083,16.893-6.083,22.976-0.019l187.742,187.747c5.567,5.552,12.825,8.312,20.081,8.312
				c7.271,0,14.541-2.764,20.092-8.312C498.171,254.586,498.171,236.619,487.083,225.514z"/>
			<path fill="#818181" d="M257.561,131.836c-5.454-5.45-14.285-5.45-19.724,0L72.712,296.913c-2.606,2.606-4.085,6.164-4.085,9.877
				v120.401c0,28.253,22.908,51.16,51.16,51.16h81.754v-126.61h92.299v126.61h81.756c28.251,0,51.159-22.907,51.159-51.159V306.79
				c0-3.713-1.466-7.271-4.085-9.877L257.561,131.836z"/>
		</g>
	</g>
</g>
</svg>
