<?xml version="1.0" encoding="utf-8"?>
<!-- Generator: Adobe Illustrator 18.0.0, SVG Export Plug-In . SVG Version: 6.00 Build 0)  -->
<!DOCTYPE svg PUBLIC "-//W3C//DTD SVG 1.1//EN" "http://www.w3.org/Graphics/SVG/1.1/DTD/svg11.dtd">
<svg version="1.1" id="Capa_1" xmlns="http://www.w3.org/2000/svg" xmlns:xlink="http://www.w3.org/1999/xlink" x="0px" y="0px"
	 viewBox="0 0 375 367" enable-background="new 0 0 375 367" xml:space="preserve">
<circle fill="#FFFFFF" cx="203.4" cy="173.5" r="10.5"/>
<g>
	<path fill="#FFFFFF" d="M35.9,304.3H10.5v-42.8h25.4v9.3H22.1v6.7h12.8v9.3H22.1v8.1h13.9V304.3z"/>
	<path fill="#FFFFFF" d="M54.9,304.9c-5.4,0-9.5-1.5-12.3-4.4c-2.8-2.9-4.2-7.1-4.2-12.6c0-5.5,1.5-9.8,4.5-12.8
		c3-3,7.3-4.5,12.9-4.5c3.8,0,7.5,0.8,10.9,2.5l-3.4,8.5c-1.4-0.6-2.7-1.1-3.8-1.5s-2.4-0.5-3.7-0.5c-1.9,0-3.3,0.7-4.3,2.2
		c-1,1.4-1.5,3.5-1.5,6.1c0,5.3,2,8,5.9,8c3.4,0,6.6-1,9.7-2.9v9.1C62.5,303.9,59,304.9,54.9,304.9z"/>
	<path fill="#FFFFFF" d="M100.8,287.6c0,5.4-1.5,9.7-4.4,12.7c-2.9,3-7,4.6-12.3,4.6c-5,0-9-1.6-12-4.7c-3-3.1-4.5-7.3-4.5-12.6
		c0-5.4,1.5-9.6,4.4-12.6c2.9-3,7-4.5,12.3-4.5c3.3,0,6.1,0.7,8.6,2.1c2.5,1.4,4.4,3.4,5.8,6C100.1,281.1,100.8,284.2,100.8,287.6z
		 M79.3,287.6c0,2.9,0.4,5,1.1,6.5s2,2.2,3.8,2.2c1.8,0,3-0.7,3.8-2.2s1.1-3.7,1.1-6.5c0-2.8-0.4-5-1.1-6.4c-0.7-1.4-2-2.2-3.8-2.2
		c-1.8,0-3,0.7-3.8,2.2S79.3,284.8,79.3,287.6z"/>
	<path fill="#FFFFFF" d="M145.1,304.3v-18c0-2.2-0.3-3.9-0.9-5.1s-1.6-1.7-2.9-1.7c-1.8,0-3,0.8-3.9,2.3s-1.2,3.9-1.2,7.1v15.5
		h-11.5v-18c0-2.2-0.3-3.9-0.9-5.1s-1.5-1.7-2.8-1.7c-1.8,0-3.1,0.8-3.9,2.4s-1.2,4.2-1.2,7.9v14.5h-11.5v-33.2h8.6l1.4,4.1h0.7
		c0.9-1.5,2.2-2.7,3.8-3.5s3.6-1.2,5.7-1.2c4.8,0,8.1,1.5,10.1,4.4h0.9c0.9-1.4,2.2-2.4,3.9-3.2s3.5-1.2,5.5-1.2c3.9,0,6.8,1,8.7,3
		s2.8,5.1,2.8,9.2v21.6H145.1z"/>
	<path fill="#FFFFFF" d="M202.1,304.3v-18c0-2.2-0.3-3.9-0.9-5.1s-1.6-1.7-2.9-1.7c-1.8,0-3,0.8-3.9,2.3s-1.2,3.9-1.2,7.1v15.5
		h-11.5v-18c0-2.2-0.3-3.9-0.9-5.1s-1.5-1.7-2.8-1.7c-1.8,0-3.1,0.8-3.9,2.4s-1.2,4.2-1.2,7.9v14.5h-11.5v-33.2h8.6l1.4,4.1h0.7
		c0.9-1.5,2.2-2.7,3.8-3.5s3.6-1.2,5.7-1.2c4.8,0,8.1,1.5,10.1,4.4h0.9c0.9-1.4,2.2-2.4,3.9-3.2s3.5-1.2,5.5-1.2c3.9,0,6.8,1,8.7,3
		s2.8,5.1,2.8,9.2v21.6H202.1z"/>
	<path fill="#FFFFFF" d="M242,304.3l-1.4-4.1h-0.7c-1,1.5-2.3,2.7-4,3.5s-3.7,1.2-6,1.2c-3.7,0-6.5-1.1-8.5-3.2s-3-5.1-3-9v-21.6
		h11.5v18.1c0,2.2,0.3,3.8,0.9,4.9s1.6,1.7,3,1.7c2,0,3.4-0.8,4.2-2.3s1.3-4.2,1.3-7.9v-14.5h11.5v33.2H242z"/>
	<path fill="#FFFFFF" d="M276.5,304.3v-18.1c0-2.2-0.3-3.9-1-5s-1.7-1.7-3.1-1.7c-1.9,0-3.3,0.8-4.2,2.3s-1.3,4.2-1.3,7.9v14.5
		h-11.5v-33.2h8.6l1.4,4.1h0.7c1-1.6,2.3-2.7,4.1-3.5s3.7-1.2,6-1.2c3.7,0,6.5,1.1,8.6,3.2s3.1,5.1,3.1,9v21.6H276.5z"/>
	<path fill="#FFFFFF" d="M292.5,262.8c0-1.7,0.5-3,1.4-3.8s2.5-1.3,4.6-1.3s3.7,0.4,4.7,1.3s1.5,2.1,1.5,3.8c0,3.4-2,5-6.1,5
		C294.5,267.9,292.5,266.2,292.5,262.8z M304.2,304.3h-11.5v-33.2h11.5V304.3z"/>
	<path fill="#FFFFFF" d="M325.5,295.8c1.5,0,3.4-0.4,5.5-1.1v8.3c-1.5,0.7-3,1.1-4.4,1.4s-3,0.4-4.9,0.4c-3.8,0-6.6-0.9-8.3-2.8
		s-2.5-4.8-2.5-8.7v-13.7h-4V275l5.1-3.6l3-7h7.5v6.7h8.1v8.6h-8.1v12.9C322.4,294.8,323.4,295.8,325.5,295.8z"/>
	<path fill="#FFFFFF" d="M332.5,271.1h12.1l5.6,19c0.3,1,0.5,2.2,0.6,3.6h0.2c0.2-1.3,0.4-2.5,0.7-3.5l5.8-19.1h11.7L356,306.4
		c-1.7,4.5-3.7,7.7-6.2,9.5s-5.6,2.8-9.6,2.8c-1.5,0-3.1-0.2-4.7-0.5v-9c1,0.2,2.2,0.4,3.5,0.4c1,0,1.9-0.2,2.7-0.6s1.4-0.9,2-1.7
		s1.2-1.9,1.8-3.5L332.5,271.1z"/>
</g>
<path fill="#FFFFFF" d="M311.7,41.6c-2.8-2.7-7.1-2.9-10.1-0.4c-8.6,7.2-27.5,1.7-47.6-4c-27.6-7.9-58.9-16.9-85.7-2.3
	c-10.2,5.5-28.2,27.6-33.2,51.6c-10,5.6-18,12.1-23.5,18.3c-2.7,2.6-18.8,19.1-18.8,44.9v77.5c0,4.1,3.4,7.5,7.5,7.5h163.5
	c4.1,0,7.5-3.4,7.5-7.5V105.7c1.3-1.4,2.5-2.8,3.8-4.2c21.4-24.1,36.6-48.6,37.7-50.5C314.7,48,314.3,44.1,311.7,41.6z M175.6,48.1
	c7.8-4.3,16.5-5.9,25.6-5.9c15.9,0,32.9,4.9,48.7,9.4c8.8,2.5,17.4,5,25.5,6.5C257.8,65.7,229.8,73,187.3,73
	c-12.3,0-23.7,2.1-33.9,5.5C159.5,63.7,170.3,51,175.6,48.1z M165.8,219.7h-24v-44c0.3-3.1,2.1-10,12.9-10c3,0,7,0.5,9.2,2.7
	c1.8,1.8,1.9,4.5,1.9,5L165.8,219.7z M256.3,219.7h-75.5V174c0.1-1.9-0.1-9.5-5.8-15.8c-4.7-5-11.5-7.6-20.2-7.6
	c-19.7,0-27.5,14.6-27.9,24.4l0,44.6h-19.1v-70c0-20.7,14.2-34,14.3-34.1c0.2-0.2,0.4-0.4,0.6-0.6c3-3.5,6.9-6.9,11.5-10.2
	c0.1,1.1,0.3,2.2,0.5,3.2c3,15.8,15.8,35.7,59.4,40.9c18.4,2.2,39.3-7.3,62.2-28.2V219.7z M195.9,134.1c-27.8-3.3-43.4-13-46.5-28.9
	c-0.5-2.9-0.7-5.8-0.5-8.8c11.1-5,24.3-8.4,38.4-8.4c43.1,0,72.6-7.2,92.1-15.2C256.4,102.5,222.6,137.3,195.9,134.1z"/>
</svg>
