<?xml version="1.0" encoding="utf-8"?>
<!-- Generator: Adobe Illustrator 18.0.0, SVG Export Plug-In . SVG Version: 6.00 Build 0)  -->
<!DOCTYPE svg PUBLIC "-//W3C//DTD SVG 1.1//EN" "http://www.w3.org/Graphics/SVG/1.1/DTD/svg11.dtd">
<svg version="1.1" id="Capa_1" xmlns="http://www.w3.org/2000/svg" xmlns:xlink="http://www.w3.org/1999/xlink" x="0px" y="0px"
	 viewBox="0 0 375 367" enable-background="new 0 0 375 367" xml:space="preserve">
<linearGradient id="SVGID_1_" gradientUnits="userSpaceOnUse" x1="141.1041" y1="274.73" x2="406.3559" y2="274.73">
	<stop  offset="0" style="stop-color:#24F5AE"/>
	<stop  offset="1" style="stop-color:#29CDFF"/>
</linearGradient>
<path display="none" fill="url(#SVGID_1_)" d="M400.2,340.8c-7.1-11.1-24.6-17.9-44.9-25.7l-1.1-0.4c-5-1.9-10.1-3.9-15.2-6
	c-14.7-6.2-22.7-9.9-26.6-11.8l-0.2-16.7c3.3-3.8,8.6-11.9,11.3-26.4c1-0.4,2-1,2.9-1.6c6-4.2,10-12.7,10.4-18.6
	c0.1-1.7,0.6-17.1-6.7-23.4c-0.2-0.2-0.4-0.3-0.6-0.5c1.3-11,1.7-17.7,1.3-22c-2.2-22.7-24.2-46.1-57.2-46.1
	c-33,0-55,23.4-57.2,46.1c-0.4,4.4-0.1,11,1.3,22.1c-0.2,0.2-0.4,0.3-0.6,0.5c-7.7,6.7-6.7,23.4-6.7,23.4
	c0.4,5.8,4.3,14.3,10.4,18.5c0.9,0.7,1.9,1.2,2.9,1.6c2.7,14.6,8,22.6,11.4,26.4l-0.2,16.7c-3.8,1.9-11.7,5.6-26.6,11.8
	c-4.9,2.1-9.9,4-14.7,5.9l-1.6,0.6c-20.2,7.9-37.7,14.6-44.8,25.7c-7.4,11.5-6.3,52.8-5.8,65.2l0.1,2l14.3-0.6l-0.1-2
	c-0.9-23.3,0.3-51.7,3.6-56.9c4.6-7.2,21.6-13.8,38-20.1c5.4-2.1,11-4.2,16.5-6.6c24.7-10.3,31.3-14.1,31.9-14.5l3.4-2.1l0.3-28.1
	l-0.1-3.4l-2.6-2.2c-0.3-0.3-7.3-6.7-9.6-25l-0.9-8.4l-7.4,2.1c-1.3-1-3.9-5.1-4.1-7.6c-0.2-4.1,0.5-8.5,1.3-10.7l7.9,1.7l-1.3-10
	c-1.1-8.2-2.5-19.7-2-24.7c1.6-16.3,18-33.1,42.9-33.1c24.9,0,41.3,16.9,42.9,33.2c0.5,5-0.9,16.5-2,24.7l-0.9,9.4l7.5-1.2
	c0.8,2.1,1.6,6.5,1.3,10.7c-0.1,2.4-2.7,6.4-4,7.6l-7.2-2.1l-1.1,8.3c-2.4,18.5-9.5,25-9.5,25l-2.8,2.2l0.3,31.6l3.4,2.1
	c0.7,0.4,7.2,4.2,31.9,14.5c5.7,2.4,11.3,4.6,16.6,6.6c16.4,6.4,33.4,13,38,20.1c3.3,5.2,4.5,33.6,3.6,56.9l-0.1,2l14.3,0.6l0.1-2
	C406.4,397.2,407.8,352.7,400.2,340.8z"/>
<g display="none">
	<g display="inline">
		<linearGradient id="SVGID_2_" gradientUnits="userSpaceOnUse" x1="156.9359" y1="354.742" x2="390.5241" y2="354.742">
			<stop  offset="0" style="stop-color:#24F5AE"/>
			<stop  offset="1" style="stop-color:#29CDFF"/>
		</linearGradient>
		<path fill="url(#SVGID_2_)" d="M337.5,301.5H209.9c-29.2,0-53,24-53,53.5v47.8c0,2.8,2.3,5.1,5.1,5.1h223.3c2.8,0,5.1-2.3,5.1-5.1
			V355C390.5,325.5,366.8,301.5,337.5,301.5z M300.3,311.8l-1.3,3.8c-3.8,10.7-13.9,17.8-25.2,17.8c-11.3,0-21.4-7.2-25.2-17.8
			l-1.3-3.8H300.3z M380.2,397.7h-29.6V371c0-2.8-2.3-5.1-5.1-5.1c-2.8,0-5.1,2.3-5.1,5.1v26.8H207.1V371c0-2.8-2.3-5.1-5.1-5.1
			c-2.8,0-5.1,2.3-5.1,5.1v26.8h-29.6V355c0-23.8,19.2-43.2,42.7-43.2h27l0.5,2.3c3.5,17.2,18.8,29.6,36.3,29.6
			c17.5,0,32.8-12.5,36.3-29.6l0.5-2.3h27c23.5,0,42.7,19.4,42.7,43.2V397.7z"/>
	</g>
	<g display="inline">
		<linearGradient id="SVGID_3_" gradientUnits="userSpaceOnUse" x1="220.7343" y1="218.6424" x2="326.7257" y2="218.6424">
			<stop  offset="0" style="stop-color:#24F5AE"/>
			<stop  offset="1" style="stop-color:#29CDFF"/>
		</linearGradient>
		<path fill="url(#SVGID_3_)" d="M289.7,141.5h-31.9c-20.4,0-37,16.6-37,37v64.3c0,29.2,23.8,53,53,53s53-23.8,53-53v-64.3
			C326.7,158.1,310.1,141.5,289.7,141.5z M316.4,242.8c0,23.5-19.2,42.7-42.7,42.7c-23.5,0-42.7-19.2-42.7-42.7v-25.3l4.5,3.2
			c10.1,7.3,23.6,11.3,38.2,11.3c14.6,0,28.2-4,38.2-11.3l4.5-3.2V242.8z M231.2,200.1h85.1l-2.6,4.3c-6.3,10.3-22.4,17.3-39.9,17.3
			c-17.6,0-33.6-7-39.9-17.3L231.2,200.1z M316.4,189.8H231v-11.3c0-14.7,12-26.8,26.8-26.8h31.9c14.8,0,26.8,12,26.8,26.8V189.8z"
			/>
	</g>
</g>
<g display="none">
	<defs>
		<rect id="SVGID_4_" x="141.5" y="146.1" width="264.5" height="257.2"/>
	</defs>
	<clipPath id="SVGID_5_" display="inline">
		<use xlink:href="#SVGID_4_"  overflow="visible"/>
	</clipPath>
	<g display="inline" clip-path="url(#SVGID_5_)">
		<g>
			<defs>
				<rect id="SVGID_6_" x="141.5" y="146.1" width="264.5" height="257.2"/>
			</defs>
			<clipPath id="SVGID_7_">
				<use xlink:href="#SVGID_6_"  overflow="visible"/>
			</clipPath>
			<linearGradient id="SVGID_8_" gradientUnits="userSpaceOnUse" x1="238.4418" y1="363.0779" x2="278.811" y2="363.0779">
				<stop  offset="0" style="stop-color:#24F5AE"/>
				<stop  offset="1" style="stop-color:#29CDFF"/>
			</linearGradient>
			<path clip-path="url(#SVGID_7_)" fill="url(#SVGID_8_)" d="M258.6,342.9c-11.1,0-20.2,9-20.2,20.2c0,11.1,9,20.2,20.2,20.2
				c11.1,0,20.2-9,20.2-20.2C278.8,351.9,269.8,342.9,258.6,342.9L258.6,342.9z M258.6,372c-4.9,0-8.9-4-8.9-8.9
				c0-4.9,4-8.9,8.9-8.9c4.9,0,8.9,4,8.9,8.9C267.5,368,263.5,372,258.6,372L258.6,372z M258.6,372"/>
			<linearGradient id="SVGID_9_" gradientUnits="userSpaceOnUse" x1="141.4594" y1="274.5865" x2="406.0015" y2="274.5865">
				<stop  offset="0" style="stop-color:#24F5AE"/>
				<stop  offset="1" style="stop-color:#29CDFF"/>
			</linearGradient>
			<path clip-path="url(#SVGID_7_)" fill="url(#SVGID_9_)" d="M398.6,310.9l-104.3,34.3c-7.9-15.8-25.2-24.5-42.6-21.4l-50.1-152
				c-3.2-9.6-11.2-16.8-21.1-18.8l-32.3-6.7c-3.1-0.6-6,1.3-6.7,4.4c-0.6,3.1,1.3,6,4.4,6.7l32.3,6.6c5.9,1.2,10.8,5.5,12.7,11.3
				l50.1,152c-17.7,8.7-26.3,29-20.4,47.8c5.9,18.8,24.7,30.5,44.1,27.5c19.5-3,33.8-19.8,33.8-39.5c0-2.4-0.2-4.8-0.7-7.2
				l104.3-34.3c2.9-1,4.6-4.1,3.6-7.1c-0.5-1.4-1.5-2.6-2.8-3.3C401.6,310.5,400,310.4,398.6,310.9L398.6,310.9z M258.6,391.7
				c-15.8,0-28.6-12.8-28.6-28.6c0-15.8,12.8-28.6,28.6-28.6c15.8,0,28.6,12.8,28.6,28.6C287.2,378.9,274.4,391.7,258.6,391.7
				L258.6,391.7z M258.6,391.7"/>
		</g>
		<linearGradient id="SVGID_10_" gradientUnits="userSpaceOnUse" x1="239.5733" y1="247.3808" x2="397.7173" y2="247.3808">
			<stop  offset="0" style="stop-color:#24F5AE"/>
			<stop  offset="1" style="stop-color:#29CDFF"/>
		</linearGradient>
		<path fill="url(#SVGID_10_)" d="M246.1,241.6c0,0.3,0.1,0.6,0.2,1c0.1,0.3,0.2,0.6,0.4,0.9l22.6,68.6c1.5,4.8,4.9,8.7,9.4,10.9
			c2.6,1.3,5.6,2,8.5,2c2,0,4-0.3,5.9-1l91.6-30.2c9.9-3.3,15.3-13.9,12-23.9L368,182.7c-1.5-4.8-4.9-8.7-9.4-10.9
			c-4.5-2.3-9.7-2.6-14.4-1.1l-91.6,30.2c-4.8,1.5-8.7,4.9-10.9,9.4c-2.3,4.5-2.6,9.7-1.1,14.4L246.1,241.6z M381.2,283.2
			l-91.6,30.2c-4,1.3-8.3-0.9-9.6-4.8l-21.1-64.1L365,209.5l21.1,64.1C387.3,277.6,385.2,281.9,381.2,283.2L381.2,283.2z
			 M256.1,211.6l91.6-30.2c0.8-0.3,1.6-0.4,2.4-0.4c1.2,0,2.4,0.3,3.4,0.8c1.8,0.9,3.2,2.5,3.8,4.4l4.1,12.5l-106.1,34.9l-4.1-12.5
			c-0.6-1.9-0.5-4,0.4-5.8C252.6,213.6,254.2,212.2,256.1,211.6L256.1,211.6z M256.1,211.6"/>
	</g>
</g>
<g display="none">
	<linearGradient id="SVGID_11_" gradientUnits="userSpaceOnUse" x1="172.2016" y1="343.7684" x2="253.4218" y2="343.7684">
		<stop  offset="0" style="stop-color:#24F5AE"/>
		<stop  offset="1" style="stop-color:#29CDFF"/>
	</linearGradient>
	<rect x="172.2" y="339.8" display="inline" fill="url(#SVGID_11_)" width="81.2" height="8"/>
	<linearGradient id="SVGID_12_" gradientUnits="userSpaceOnUse" x1="269.7513" y1="351.891" x2="277.7029" y2="351.891">
		<stop  offset="0" style="stop-color:#24F5AE"/>
		<stop  offset="1" style="stop-color:#29CDFF"/>
	</linearGradient>
	<rect x="269.8" y="339.7" display="inline" fill="url(#SVGID_12_)" width="8" height="24.4"/>
	<linearGradient id="SVGID_13_" gradientUnits="userSpaceOnUse" x1="294.1226" y1="351.891" x2="302.0742" y2="351.891">
		<stop  offset="0" style="stop-color:#24F5AE"/>
		<stop  offset="1" style="stop-color:#29CDFF"/>
	</linearGradient>
	<rect x="294.1" y="339.7" display="inline" fill="url(#SVGID_13_)" width="8" height="24.4"/>
	<linearGradient id="SVGID_14_" gradientUnits="userSpaceOnUse" x1="318.4882" y1="351.891" x2="326.4397" y2="351.891">
		<stop  offset="0" style="stop-color:#24F5AE"/>
		<stop  offset="1" style="stop-color:#29CDFF"/>
	</linearGradient>
	<rect x="318.5" y="339.7" display="inline" fill="url(#SVGID_14_)" width="8" height="24.4"/>
	<linearGradient id="SVGID_15_" gradientUnits="userSpaceOnUse" x1="342.8512" y1="351.891" x2="350.8028" y2="351.891">
		<stop  offset="0" style="stop-color:#24F5AE"/>
		<stop  offset="1" style="stop-color:#29CDFF"/>
	</linearGradient>
	<rect x="342.9" y="339.7" display="inline" fill="url(#SVGID_15_)" width="8" height="24.4"/>
	<linearGradient id="SVGID_16_" gradientUnits="userSpaceOnUse" x1="367.2224" y1="351.891" x2="375.174" y2="351.891">
		<stop  offset="0" style="stop-color:#24F5AE"/>
		<stop  offset="1" style="stop-color:#29CDFF"/>
	</linearGradient>
	<rect x="367.2" y="339.7" display="inline" fill="url(#SVGID_16_)" width="8" height="24.4"/>
	<linearGradient id="SVGID_17_" gradientUnits="userSpaceOnUse" x1="143.773" y1="274.73" x2="403.687" y2="274.73">
		<stop  offset="0" style="stop-color:#24F5AE"/>
		<stop  offset="1" style="stop-color:#29CDFF"/>
	</linearGradient>
	<path display="inline" fill="url(#SVGID_17_)" d="M399.5,388.5V268.3l-57.2,28.6l-8-143.9h-40l-8.2,131.4L261,296.9l-8-107.4h-39.8
		l-8.2,94.8l-57.1,28.5v75.6h-4.1v8h259.9v-8H399.5z M301.8,160.9h25l0.5,8.3h-26L301.8,160.9z M300.8,177.2h26.9l0.5,8.3h-27.9
		L300.8,177.2z M299.8,193.4h28.8l6,107.3l-16.3,8.1v-40.6l-23.9,12L299.8,193.4z M220.5,197.5h25.2l0.6,8.3h-26.5L220.5,197.5z
		 M219.1,213.7h27.8l0.6,8.3h-29.1L219.1,213.7z M217.7,230h30.4l5.2,70.8l-16.2,8.1v-40.6l-23.8,11.9L217.7,230z M172.3,388.5
		h-16.4v-8.3h16.4V388.5z M245.4,388.5h-65.1v-28.6h65.1V388.5z M391.6,388.5H253.3v-8.3h138.3V388.5z M391.6,372.3H253.3V352h-81.1
		v20.3h-16.4v-54.5l73.3-36.6v40.6l81.2-40.6v40.6l81.2-40.6V372.3z M391.6,372.3"/>
</g>
<g display="none">
	<g display="inline">
		<defs>
			<rect id="SVGID_18_" x="166.7" y="149.1" width="214" height="251.3"/>
		</defs>
		<clipPath id="SVGID_19_">
			<use xlink:href="#SVGID_18_"  overflow="visible"/>
		</clipPath>
		<linearGradient id="SVGID_20_" gradientUnits="userSpaceOnUse" x1="166.7496" y1="274.7298" x2="380.7086" y2="274.7298">
			<stop  offset="0" style="stop-color:#24F5AE"/>
			<stop  offset="1" style="stop-color:#29CDFF"/>
		</linearGradient>
		<path clip-path="url(#SVGID_19_)" fill="url(#SVGID_20_)" d="M380.5,217.3l0-0.2c-0.1-2.4-0.2-5-0.2-7.8
			c-0.2-13.9-11.2-25.3-25.1-26.1c-28.9-1.6-51.2-11-70.3-29.6l-0.2-0.2c-6.2-5.7-15.6-5.7-21.9,0l-0.2,0.2
			c-19.1,18.6-41.4,28-70.3,29.6c-13.9,0.8-24.9,12.2-25.1,26.1c0,2.8-0.1,5.4-0.2,7.8l0,0.5c-0.6,29.5-1.3,66.1,11,99.4
			c6.7,18.3,17,34.2,30.4,47.3c15.3,14.9,35.2,26.7,59.4,35.1c0.8,0.3,1.6,0.5,2.4,0.7c1.2,0.2,2.4,0.4,3.5,0.4
			c1.2,0,2.4-0.1,3.5-0.4c0.8-0.2,1.7-0.4,2.4-0.7c24.1-8.4,44.1-20.3,59.3-35.2c13.4-13.1,23.6-29,30.4-47.3
			C381.7,283.5,381,246.8,380.5,217.3L380.5,217.3z M355.6,311.8c-12.9,35.1-39.3,59.2-80.7,73.6c-0.1,0.1-0.3,0.1-0.5,0.1
			c-0.4,0.1-0.9,0.1-1.3,0c-0.2,0-0.3-0.1-0.5-0.1c-41.4-14.4-67.9-38.5-80.8-73.6c-11.3-30.7-10.7-64.3-10.1-94l0-0.2
			c0.1-2.6,0.2-5.2,0.2-8.2c0.1-6.2,5-11.2,11.2-11.6c16.3-0.9,30.7-4.1,43.9-9.7c13.2-5.6,24.9-13.4,35.8-24c0.6-0.5,1.3-0.5,1.8,0
			c10.9,10.6,22.6,18.5,35.8,24c13.2,5.6,27.6,8.7,43.9,9.7c6.2,0.3,11.1,5.4,11.2,11.6c0,3,0.1,5.6,0.2,8.2
			C366.3,247.4,366.9,281.1,355.6,311.8L355.6,311.8z M355.6,311.8"/>
	</g>
	<linearGradient id="SVGID_21_" gradientUnits="userSpaceOnUse" x1="211.1111" y1="274.7346" x2="336.345" y2="274.7346">
		<stop  offset="0" style="stop-color:#24F5AE"/>
		<stop  offset="1" style="stop-color:#29CDFF"/>
	</linearGradient>
	<path display="inline" fill="url(#SVGID_21_)" d="M273.7,212.1c-34.5,0-62.6,28.1-62.6,62.6c0,34.5,28.1,62.6,62.6,62.6
		c34.5,0,62.6-28.1,62.6-62.6C336.3,240.2,308.3,212.1,273.7,212.1L273.7,212.1z M273.7,322.6c-26.4,0-47.9-21.5-47.9-47.9
		s21.5-47.9,47.9-47.9c26.4,0,47.9,21.5,47.9,47.9S300.1,322.6,273.7,322.6L273.7,322.6z M273.7,322.6"/>
	<linearGradient id="SVGID_22_" gradientUnits="userSpaceOnUse" x1="242.1623" y1="277.6541" x2="304.3084" y2="277.6541">
		<stop  offset="0" style="stop-color:#24F5AE"/>
		<stop  offset="1" style="stop-color:#29CDFF"/>
	</linearGradient>
	<path display="inline" fill="url(#SVGID_22_)" d="M291.7,255.3l-29.1,29.1l-7.9-7.9c-2.9-2.9-7.5-2.9-10.4,0
		c-2.9,2.9-2.9,7.5,0,10.4l13.1,13.1c1.4,1.4,3.3,2.2,5.2,2.2c1.9,0,3.8-0.7,5.2-2.2l34.3-34.3c2.9-2.9,2.9-7.5,0-10.4
		C299.3,252.4,294.6,252.4,291.7,255.3L291.7,255.3z M291.7,255.3"/>
</g>
<g display="none">
	<g display="inline">
		<defs>
			<rect id="SVGID_23_" x="166.7" y="145.8" width="214" height="257.9"/>
		</defs>
		<clipPath id="SVGID_24_">
			<use xlink:href="#SVGID_23_"  overflow="visible"/>
		</clipPath>
		<linearGradient id="SVGID_25_" gradientUnits="userSpaceOnUse" x1="166.7495" y1="274.5119" x2="380.7989" y2="274.5119">
			<stop  offset="0" style="stop-color:#24F5AE"/>
			<stop  offset="1" style="stop-color:#29CDFF"/>
		</linearGradient>
		<path clip-path="url(#SVGID_24_)" fill="url(#SVGID_25_)" d="M362.4,145.8H220.2c-10.1,0-18.4,8.2-18.4,18.4v11.7h-16.7
			c-10.1,0-18.4,8.2-18.4,18.4v190.7c0,10.1,8.2,18.4,18.4,18.4h142.2c10.1,0,18.4-8.2,18.4-18.4v-11.7h16.7
			c10.1,0,18.4-8.2,18.4-18.4V164.1C380.8,154,372.6,145.8,362.4,145.8L362.4,145.8z M331,384.9c0,2-1.7,3.7-3.7,3.7H185.1
			c-2,0-3.7-1.7-3.7-3.7V194.2c0-2,1.7-3.7,3.7-3.7h16.7v164.3c0,10.1,8.2,18.4,18.4,18.4H331V384.9z M366.1,354.8
			c0,2-1.6,3.7-3.7,3.7H220.2c-2,0-3.7-1.6-3.7-3.7V164.1c0-2,1.6-3.7,3.7-3.7h142.2c2,0,3.7,1.7,3.7,3.7V354.8z M366.1,354.8"/>
	</g>
	<linearGradient id="SVGID_26_" gradientUnits="userSpaceOnUse" x1="230.1008" y1="198.7278" x2="352.5314" y2="198.7278">
		<stop  offset="0" style="stop-color:#24F5AE"/>
		<stop  offset="1" style="stop-color:#29CDFF"/>
	</linearGradient>
	<path display="inline" fill="url(#SVGID_26_)" d="M345.2,191.4H237.4c-4.1,0-7.3,3.3-7.3,7.3c0,4.1,3.3,7.3,7.3,7.3h107.7
		c4.1,0,7.3-3.3,7.3-7.3C352.5,194.7,349.2,191.4,345.2,191.4L345.2,191.4z M345.2,191.4"/>
	<linearGradient id="SVGID_27_" gradientUnits="userSpaceOnUse" x1="230.1008" y1="233.6936" x2="352.5314" y2="233.6936">
		<stop  offset="0" style="stop-color:#24F5AE"/>
		<stop  offset="1" style="stop-color:#29CDFF"/>
	</linearGradient>
	<path display="inline" fill="url(#SVGID_27_)" d="M345.2,226.3H237.4c-4.1,0-7.3,3.3-7.3,7.3c0,4.1,3.3,7.3,7.3,7.3h107.7
		c4.1,0,7.3-3.3,7.3-7.3C352.5,229.6,349.2,226.3,345.2,226.3L345.2,226.3z M345.2,226.3"/>
	<linearGradient id="SVGID_28_" gradientUnits="userSpaceOnUse" x1="230.1008" y1="268.657" x2="352.5314" y2="268.657">
		<stop  offset="0" style="stop-color:#24F5AE"/>
		<stop  offset="1" style="stop-color:#29CDFF"/>
	</linearGradient>
	<path display="inline" fill="url(#SVGID_28_)" d="M345.2,261.3H237.4c-4.1,0-7.3,3.3-7.3,7.3c0,4.1,3.3,7.3,7.3,7.3h107.7
		c4.1,0,7.3-3.3,7.3-7.3C352.5,264.6,349.2,261.3,345.2,261.3L345.2,261.3z M345.2,261.3"/>
	<linearGradient id="SVGID_29_" gradientUnits="userSpaceOnUse" x1="230.1008" y1="303.6231" x2="352.5314" y2="303.6231">
		<stop  offset="0" style="stop-color:#24F5AE"/>
		<stop  offset="1" style="stop-color:#29CDFF"/>
	</linearGradient>
	<path display="inline" fill="url(#SVGID_29_)" d="M345.2,296.3H237.4c-4.1,0-7.3,3.3-7.3,7.3c0,4.1,3.3,7.3,7.3,7.3h107.7
		c4.1,0,7.3-3.3,7.3-7.3C352.5,299.6,349.2,296.3,345.2,296.3L345.2,296.3z M345.2,296.3"/>
</g>
<g display="none">
	<linearGradient id="SVGID_30_" gradientUnits="userSpaceOnUse" x1="217.105" y1="277.6541" x2="330.3549" y2="277.6541">
		<stop  offset="0" style="stop-color:#24F5AE"/>
		<stop  offset="1" style="stop-color:#29CDFF"/>
	</linearGradient>
	<path display="inline" fill="url(#SVGID_30_)" d="M312.4,309.8c5.7,0,10.4,4.7,10.4,10.4c0,5.7-4.7,10.4-10.4,10.4h-10.1v7.6h8.1
		c6.8,0,12.2,5.3,12.2,12.2v32.4c0,6.8-5.3,12.7-12.2,12.7h-14.3c1.2-3,1.8-5.6,1.8-8.6h-7.6c0,6.8-5.6,12.7-12.4,12.7h-8.1
		c-6.8,0-12.4-5.8-12.4-12.7h-7.6c0,3,0.7,5.6,1.8,8.6h-14.3c-6.8,0-12.7-5.8-12.7-12.7v-32.4c0-6.8,5.8-12.2,12.7-12.2h40.5v-7.6
		h-42.6c-5.7,0-10.4-4.7-10.4-10.4c0-5.7,4.7-10.4,10.4-10.4h42.6v-7.6h-42.6c-5.7,0-10.4-4.7-10.4-10.4c0-5.7,4.7-10.4,10.4-10.4
		h42.6v-7.6h-40.5c-6.8,0-12.7-5.8-12.7-12.7v-32.4h97.8v32.4c0,6.8-5.3,12.7-12.2,12.7h-8.1v7.6h10.1c5.7,0,10.4,4.7,10.4,10.4
		c0,5.7-4.7,10.4-10.4,10.4h-10.1v7.6H312.4L312.4,309.8z M263.6,176h20.6l34.7,45.1h-90L263.6,176L263.6,176z M253.1,168.4v-12.7
		h41v12.7H253.1L253.1,168.4z M330.3,320c0-5.8-2.7-10.9-6.9-14.2c4.2-3.3,7-8.4,7-14.2c0-6.1-3.1-11.4-7.8-14.7
		c4.6-3.7,7.5-9.3,7.5-15.7v-37.8L293.7,176h8v-27.9h-56.3V176h8.5l-36.9,47.4v37.8c0,6.4,3.1,12,7.8,15.7
		c-4.6,3.3-7.6,8.6-7.6,14.7c0,5.8,2.8,10.9,7,14.2c-4.2,3.3-6.9,8.4-6.9,14.2c0,6.1,2.9,11.4,7.5,14.7c-4.6,3.7-7.8,9.3-7.8,15.7
		v32.4c0,11,9.2,20.3,20.3,20.3h20.3v-0.3c3.4,2.6,7.6,4.4,12.2,4.4h8.1c4.6,0,8.8-1.8,12.2-4.4v0.3h20.3c11,0,19.8-9.2,19.8-20.3
		v-32.4c0-6.4-2.9-12-7.5-15.7C327.2,331.4,330.3,326,330.3,320L330.3,320z"/>
	<linearGradient id="SVGID_31_" gradientUnits="userSpaceOnUse" x1="245.4868" y1="208.7317" x2="253.5954" y2="208.7317">
		<stop  offset="0" style="stop-color:#24F5AE"/>
		<stop  offset="1" style="stop-color:#29CDFF"/>
	</linearGradient>
	<polygon display="inline" fill="url(#SVGID_31_)" points="245.5,204.9 253.6,204.9 253.6,212.5 245.5,212.5 245.5,204.9 	"/>
	<linearGradient id="SVGID_32_" gradientUnits="userSpaceOnUse" x1="253.5954" y1="200.6231" x2="261.7039" y2="200.6231">
		<stop  offset="0" style="stop-color:#24F5AE"/>
		<stop  offset="1" style="stop-color:#29CDFF"/>
	</linearGradient>
	<polygon display="inline" fill="url(#SVGID_32_)" points="253.6,196.8 261.7,196.8 261.7,204.4 253.6,204.4 253.6,196.8 	"/>
	<linearGradient id="SVGID_33_" gradientUnits="userSpaceOnUse" x1="286.0294" y1="306.0338" x2="294.1377" y2="306.0338">
		<stop  offset="0" style="stop-color:#24F5AE"/>
		<stop  offset="1" style="stop-color:#29CDFF"/>
	</linearGradient>
	<polygon display="inline" fill="url(#SVGID_33_)" points="286,302.2 294.1,302.2 294.1,309.8 286,309.8 286,302.2 	"/>
	<linearGradient id="SVGID_34_" gradientUnits="userSpaceOnUse" x1="286.0294" y1="277.6541" x2="294.1377" y2="277.6541">
		<stop  offset="0" style="stop-color:#24F5AE"/>
		<stop  offset="1" style="stop-color:#29CDFF"/>
	</linearGradient>
	<polygon display="inline" fill="url(#SVGID_34_)" points="286,273.9 294.1,273.9 294.1,281.5 286,281.5 286,273.9 	"/>
	<linearGradient id="SVGID_35_" gradientUnits="userSpaceOnUse" x1="286.0294" y1="334.4136" x2="294.1377" y2="334.4136">
		<stop  offset="0" style="stop-color:#24F5AE"/>
		<stop  offset="1" style="stop-color:#29CDFF"/>
	</linearGradient>
	<polygon display="inline" fill="url(#SVGID_35_)" points="286,330.6 294.1,330.6 294.1,338.2 286,338.2 286,330.6 	"/>
</g>
<g display="none">
	<linearGradient id="SVGID_36_" gradientUnits="userSpaceOnUse" x1="239.8569" y1="274.73" x2="322.678" y2="274.73">
		<stop  offset="0" style="stop-color:#24F5AE"/>
		<stop  offset="1" style="stop-color:#29CDFF"/>
	</linearGradient>
	<path display="inline" fill="url(#SVGID_36_)" d="M239.9,403.3h78.2c2.5,0,4.6-2.1,4.6-4.6V238c0-14.4-9.4-26.8-23-30.8l0,0v-37
		c2.9-2.6,4.6-6.3,4.6-10.2c0-7.6-6.2-13.8-13.8-13.8h-18.4c-7.6,0-13.8,6.2-13.8,13.8c0,4.1,1.8,7.7,4.6,10.3v37
		c-13.5,4-23,16.4-23,30.8v18.4c0,2.5,2.1,4.6,4.6,4.6c2.5,0,4.6-2.1,4.6-4.6V238c0-11,8.2-20.8,19.1-22.6c0.4-0.1,0.7-0.2,1.1-0.3
		h23.8c0.3,0.2,0.7,0.3,1.1,0.3c10.9,1.9,19.1,11.6,19.1,22.6v18.4h-32.1c-2.5,0-4.6,2.1-4.6,4.6v87.2c0,2.5,2.1,4.6,4.6,4.6h32.1
		v41.3h-64.3V274.7c0-0.1-9.4,0.1-9.4,0 M276.8,173.7c2.5,0,4.6-2.1,4.6-4.6c0-2.5-2.1-4.6-4.6-4.6h-4.6c-2.5,0-4.6-2.1-4.6-4.6
		c0-2.5,2.1-4.6,4.6-4.6h18.4c2.5,0,4.6,2.1,4.6,4.6c0,1.6-0.9,3.1-2.3,4c-1.7,1-2.5,2.8-2.2,4.6c0,0.2,0,0.4,0,0.6v36.7h-18.4
		v-32.1H276.8z M240.1,343.9v50.2 M286,343.6v-78h27.5v78H286z M286,343.6"/>
</g>
<g display="none">
	<linearGradient id="SVGID_37_" gradientUnits="userSpaceOnUse" x1="141.4176" y1="274.73" x2="406.0424" y2="274.73">
		<stop  offset="0" style="stop-color:#24F5AE"/>
		<stop  offset="1" style="stop-color:#29CDFF"/>
	</linearGradient>
	<path display="inline" fill="url(#SVGID_37_)" d="M300.5,299.6c0,9.7,3.2,19,8.9,26.6h-72.2c5.8-7.6,9-16.9,9-26.6
		c0-9.4-3-18.5-8.5-26H309C303.5,281.1,300.5,290.2,300.5,299.6L300.5,299.6z M178.9,262.1c-9.7-4-17.8-11.2-23.1-20.2h96v23.8
		h-21.5c-7.9-6.6-17.9-10.2-28.2-10.2C193.9,255.5,185.9,257.8,178.9,262.1L178.9,262.1z M259.7,204.7h138.4
		c-2,34-30.4,61.1-64.9,61.1h-15.4h-58.1V204.7L259.7,204.7z M319.4,273.6h13.8c40.2,0,72.9-32.7,72.9-72.9c0-2.2-1.8-3.9-3.9-3.9
		H255.8c-2.2,0-3.9,1.8-3.9,3.9v13h-62.5c-2.2,0-3.9,1.8-3.9,3.9c0,2.2,1.8,3.9,3.9,3.9h62.5v12.5h-99.7c-1.5-4-2.4-8.2-2.7-12.5
		h26.8c2.2,0,3.9-1.8,3.9-3.9c0-2.2-1.8-3.9-3.9-3.9h-30.9c-2.2,0-3.9,1.8-3.9,3.9c0,7.6,1.5,14.9,4.4,21.9c0,0,0,0,0,0
		c6,14.2,17.8,25.3,32.2,30.6c1.2,0.4,2.5,0.3,3.6-0.5c6-4.2,13.1-6.4,20.5-6.4c8.9,0,17.5,3.3,24.1,9.2c0,0,0.1,0.1,0.1,0.1
		c7.6,6.9,12,16.7,12,26.9c0,10.1-4.2,19.7-11.7,26.6H209c-2.2,0-3.9,1.8-3.9,3.9v18.7c0,2.2,1.8,3.9,3.9,3.9h97.6
		c2.2,0,3.9-1.8,3.9-3.9c0-2.2-1.8-3.9-3.9-3.9h-93.7V334h121.4v10.8h-14.4c-2.2,0-3.9,1.8-3.9,3.9c0,2.2,1.8,3.9,3.9,3.9h18.4
		c2.2,0,3.9-1.8,3.9-3.9v-18.7c0-2.2-1.8-3.9-3.9-3.9H320c-7.4-6.9-11.7-16.5-11.7-26.6C308.4,289.8,312.4,280.4,319.4,273.6
		L319.4,273.6z"/>
</g>
<g display="none">
	<g display="inline">
		<defs>
			<rect id="SVGID_38_" x="179.7" y="145.1" width="188" height="259.3"/>
		</defs>
		<clipPath id="SVGID_39_">
			<use xlink:href="#SVGID_38_"  overflow="visible"/>
		</clipPath>
		<linearGradient id="SVGID_40_" gradientUnits="userSpaceOnUse" x1="179.733" y1="274.73" x2="367.7274" y2="274.73">
			<stop  offset="0" style="stop-color:#24F5AE"/>
			<stop  offset="1" style="stop-color:#29CDFF"/>
		</linearGradient>
		<path clip-path="url(#SVGID_39_)" fill="url(#SVGID_40_)" d="M355.6,363.7c-0.3,0.4-1,1.4-2.5,1.4H194.4c-1.5,0-2.2-1-2.5-1.4
			c-0.3-0.4-0.8-1.6-0.1-2.9l11.9-22.4h140l11.9,22.4C356.4,362.1,355.9,363.3,355.6,363.7L355.6,363.7z M273.7,392.7
			c-9.1,0-16.6-7-17.4-15.9h34.9C290.3,385.7,282.8,392.7,273.7,392.7L273.7,392.7z M205.8,273c0-37.5,30.5-67.9,67.9-67.9
			s67.9,30.5,67.9,67.9v53.8H205.8V273L205.8,273z M263.3,167.2c0-5.7,4.7-10.4,10.4-10.4c5.7,0,10.4,4.7,10.4,10.4V194
			c-3.4-0.4-6.9-0.7-10.4-0.7c-3.5,0-7,0.2-10.4,0.7V167.2L263.3,167.2z M366,355.3l-12.6-23.7V273c0-36.2-24.3-66.9-57.5-76.5
			v-29.3c0-12.2-9.9-22.1-22.1-22.1s-22.1,9.9-22.1,22.1v29.3c-33.2,9.6-57.5,40.3-57.5,76.5v58.6l-12.6,23.7
			c-2.4,4.6-2.3,10,0.4,14.4c2.7,4.4,7.3,7.1,12.5,7.1h50.2c0.9,15.3,13.6,27.6,29.2,27.6s28.3-12.2,29.2-27.6h50.2
			c5.2,0,9.9-2.7,12.5-7.1C368.3,365.3,368.4,359.9,366,355.3L366,355.3z"/>
	</g>
	<linearGradient id="SVGID_41_" gradientUnits="userSpaceOnUse" x1="221.3837" y1="249.7022" x2="279.5749" y2="249.7022">
		<stop  offset="0" style="stop-color:#24F5AE"/>
		<stop  offset="1" style="stop-color:#29CDFF"/>
	</linearGradient>
	<path display="inline" fill="url(#SVGID_41_)" d="M273.7,220.6c-28.9,0-52.3,23.5-52.3,52.3c0,3.2,2.6,5.8,5.8,5.8
		c3.2,0,5.8-2.6,5.8-5.8c0-22.4,18.2-40.7,40.7-40.7c3.2,0,5.8-2.6,5.8-5.8C279.6,223.2,277,220.6,273.7,220.6L273.7,220.6z"/>
</g>
<g display="none">
	<linearGradient id="SVGID_42_" gradientUnits="userSpaceOnUse" x1="157.2168" y1="265.7674" x2="390.2431" y2="265.7674">
		<stop  offset="0" style="stop-color:#24F5AE"/>
		<stop  offset="1" style="stop-color:#29CDFF"/>
	</linearGradient>
	<path display="inline" fill="url(#SVGID_42_)" d="M166.2,382.3h215.1v-233H166.2V382.3L166.2,382.3z M385.8,391.2H161.7
		c-2.7,0-4.5-1.8-4.5-4.5v-242c0-2.7,1.8-4.5,4.5-4.5h224.1c2.7,0,4.5,1.8,4.5,4.5v242C390.2,389.5,388.5,391.2,385.8,391.2
		L385.8,391.2z"/>
	<linearGradient id="SVGID_43_" gradientUnits="userSpaceOnUse" x1="139.2917" y1="395.7244" x2="408.1683" y2="395.7244">
		<stop  offset="0" style="stop-color:#24F5AE"/>
		<stop  offset="1" style="stop-color:#29CDFF"/>
	</linearGradient>
	<path display="inline" fill="url(#SVGID_43_)" d="M148.3,400.2h251v-9h-251V400.2L148.3,400.2z M403.7,409.2H143.8
		c-2.7,0-4.5-1.8-4.5-4.5v-17.9c0-2.7,1.8-4.5,4.5-4.5h259.9c2.7,0,4.5,1.8,4.5,4.5v17.9C408.2,407.4,406.4,409.2,403.7,409.2
		L403.7,409.2z"/>
	<linearGradient id="SVGID_44_" gradientUnits="userSpaceOnUse" x1="184.1044" y1="180.6232" x2="228.9173" y2="180.6232">
		<stop  offset="0" style="stop-color:#24F5AE"/>
		<stop  offset="1" style="stop-color:#29CDFF"/>
	</linearGradient>
	<path display="inline" fill="url(#SVGID_44_)" d="M193.1,189.6H220v-17.9h-26.9V189.6L193.1,189.6z M224.4,198.5h-35.8
		c-2.7,0-4.5-1.8-4.5-4.5v-26.9c0-2.7,1.8-4.5,4.5-4.5h35.8c2.7,0,4.5,1.8,4.5,4.5v26.9C228.9,196.8,227.1,198.5,224.4,198.5
		L224.4,198.5z"/>
	<linearGradient id="SVGID_45_" gradientUnits="userSpaceOnUse" x1="184.1044" y1="229.9172" x2="228.9173" y2="229.9172">
		<stop  offset="0" style="stop-color:#24F5AE"/>
		<stop  offset="1" style="stop-color:#29CDFF"/>
	</linearGradient>
	<path display="inline" fill="url(#SVGID_45_)" d="M193.1,238.9H220V221h-26.9V238.9L193.1,238.9z M224.4,247.8h-35.8
		c-2.7,0-4.5-1.8-4.5-4.5v-26.9c0-2.7,1.8-4.5,4.5-4.5h35.8c2.7,0,4.5,1.8,4.5,4.5v26.9C228.9,246,227.1,247.8,224.4,247.8
		L224.4,247.8z"/>
	<linearGradient id="SVGID_46_" gradientUnits="userSpaceOnUse" x1="251.3235" y1="229.9172" x2="296.136" y2="229.9172">
		<stop  offset="0" style="stop-color:#24F5AE"/>
		<stop  offset="1" style="stop-color:#29CDFF"/>
	</linearGradient>
	<path display="inline" fill="url(#SVGID_46_)" d="M260.3,238.9h26.9V221h-26.9V238.9L260.3,238.9z M291.7,247.8h-35.9
		c-2.7,0-4.5-1.8-4.5-4.5v-26.9c0-2.7,1.8-4.5,4.5-4.5h35.9c2.7,0,4.5,1.8,4.5,4.5v26.9C296.1,246,294.3,247.8,291.7,247.8
		L291.7,247.8z"/>
	<linearGradient id="SVGID_47_" gradientUnits="userSpaceOnUse" x1="318.5428" y1="229.9172" x2="363.3553" y2="229.9172">
		<stop  offset="0" style="stop-color:#24F5AE"/>
		<stop  offset="1" style="stop-color:#29CDFF"/>
	</linearGradient>
	<path display="inline" fill="url(#SVGID_47_)" d="M327.5,238.9h26.9V221h-26.9V238.9L327.5,238.9z M358.9,247.8H323
		c-2.7,0-4.5-1.8-4.5-4.5v-26.9c0-2.7,1.8-4.5,4.5-4.5h35.9c2.7,0,4.5,1.8,4.5,4.5v26.9C363.4,246,361.6,247.8,358.9,247.8
		L358.9,247.8z"/>
	<linearGradient id="SVGID_48_" gradientUnits="userSpaceOnUse" x1="251.3235" y1="279.211" x2="296.136" y2="279.211">
		<stop  offset="0" style="stop-color:#24F5AE"/>
		<stop  offset="1" style="stop-color:#29CDFF"/>
	</linearGradient>
	<path display="inline" fill="url(#SVGID_48_)" d="M260.3,288.2h26.9v-17.9h-26.9V288.2L260.3,288.2z M291.7,297.1h-35.9
		c-2.7,0-4.5-1.8-4.5-4.5v-26.9c0-2.7,1.8-4.5,4.5-4.5h35.9c2.7,0,4.5,1.8,4.5,4.5v26.9C296.1,295.3,294.3,297.1,291.7,297.1
		L291.7,297.1z"/>
	<linearGradient id="SVGID_49_" gradientUnits="userSpaceOnUse" x1="318.5428" y1="279.211" x2="363.3553" y2="279.211">
		<stop  offset="0" style="stop-color:#24F5AE"/>
		<stop  offset="1" style="stop-color:#29CDFF"/>
	</linearGradient>
	<path display="inline" fill="url(#SVGID_49_)" d="M327.5,288.2h26.9v-17.9h-26.9V288.2L327.5,288.2z M358.9,297.1H323
		c-2.7,0-4.5-1.8-4.5-4.5v-26.9c0-2.7,1.8-4.5,4.5-4.5h35.9c2.7,0,4.5,1.8,4.5,4.5v26.9C363.4,295.3,361.6,297.1,358.9,297.1
		L358.9,297.1z"/>
	<linearGradient id="SVGID_50_" gradientUnits="userSpaceOnUse" x1="184.1044" y1="279.211" x2="228.9173" y2="279.211">
		<stop  offset="0" style="stop-color:#24F5AE"/>
		<stop  offset="1" style="stop-color:#29CDFF"/>
	</linearGradient>
	<path display="inline" fill="url(#SVGID_50_)" d="M193.1,288.2H220v-17.9h-26.9V288.2L193.1,288.2z M224.4,297.1h-35.8
		c-2.7,0-4.5-1.8-4.5-4.5v-26.9c0-2.7,1.8-4.5,4.5-4.5h35.8c2.7,0,4.5,1.8,4.5,4.5v26.9C228.9,295.3,227.1,297.1,224.4,297.1
		L224.4,297.1z"/>
	<linearGradient id="SVGID_51_" gradientUnits="userSpaceOnUse" x1="251.3235" y1="180.6232" x2="296.136" y2="180.6232">
		<stop  offset="0" style="stop-color:#24F5AE"/>
		<stop  offset="1" style="stop-color:#29CDFF"/>
	</linearGradient>
	<path display="inline" fill="url(#SVGID_51_)" d="M260.3,189.6h26.9v-17.9h-26.9V189.6L260.3,189.6z M291.7,198.5h-35.9
		c-2.7,0-4.5-1.8-4.5-4.5v-26.9c0-2.7,1.8-4.5,4.5-4.5h35.9c2.7,0,4.5,1.8,4.5,4.5v26.9C296.1,196.8,294.3,198.5,291.7,198.5
		L291.7,198.5z"/>
	<linearGradient id="SVGID_52_" gradientUnits="userSpaceOnUse" x1="318.5428" y1="180.6232" x2="363.3553" y2="180.6232">
		<stop  offset="0" style="stop-color:#24F5AE"/>
		<stop  offset="1" style="stop-color:#29CDFF"/>
	</linearGradient>
	<path display="inline" fill="url(#SVGID_52_)" d="M327.5,189.6h26.9v-17.9h-26.9V189.6L327.5,189.6z M358.9,198.5H323
		c-2.7,0-4.5-1.8-4.5-4.5v-26.9c0-2.7,1.8-4.5,4.5-4.5h35.9c2.7,0,4.5,1.8,4.5,4.5v26.9C363.4,196.8,361.6,198.5,358.9,198.5
		L358.9,198.5z"/>
	<linearGradient id="SVGID_53_" gradientUnits="userSpaceOnUse" x1="269.2487" y1="359.8742" x2="314.0612" y2="359.8742">
		<stop  offset="0" style="stop-color:#24F5AE"/>
		<stop  offset="1" style="stop-color:#29CDFF"/>
	</linearGradient>
	<path display="inline" fill="url(#SVGID_53_)" d="M278.2,382.3h26.9v-44.8h-26.9V382.3L278.2,382.3z M309.6,391.2h-35.9
		c-2.7,0-4.5-1.8-4.5-4.5V333c0-2.7,1.8-4.5,4.5-4.5h35.9c2.7,0,4.5,1.8,4.5,4.5v53.8C314.1,389.5,312.3,391.2,309.6,391.2
		L309.6,391.2z"/>
	<linearGradient id="SVGID_54_" gradientUnits="userSpaceOnUse" x1="233.3983" y1="359.8742" x2="278.2113" y2="359.8742">
		<stop  offset="0" style="stop-color:#24F5AE"/>
		<stop  offset="1" style="stop-color:#29CDFF"/>
	</linearGradient>
	<path display="inline" fill="url(#SVGID_54_)" d="M242.4,382.3h26.9v-44.8h-26.9V382.3L242.4,382.3z M273.7,391.2h-35.8
		c-2.7,0-4.5-1.8-4.5-4.5V333c0-2.7,1.8-4.5,4.5-4.5h35.8c2.7,0,4.5,1.8,4.5,4.5v53.8C278.2,389.5,276.4,391.2,273.7,391.2
		L273.7,391.2z"/>
	<linearGradient id="SVGID_55_" gradientUnits="userSpaceOnUse" x1="242.3609" y1="315.0615" x2="305.0986" y2="315.0615">
		<stop  offset="0" style="stop-color:#24F5AE"/>
		<stop  offset="1" style="stop-color:#29CDFF"/>
	</linearGradient>
	<path display="inline" fill="url(#SVGID_55_)" d="M300.6,319.5h-53.8c-2.7,0-4.5-1.8-4.5-4.5s1.8-4.5,4.5-4.5h53.8
		c2.7,0,4.5,1.8,4.5,4.5S303.3,319.5,300.6,319.5L300.6,319.5z"/>
</g>
<g display="none">
	<g display="inline">
		<g>
			<linearGradient id="SVGID_56_" gradientUnits="userSpaceOnUse" x1="148.1468" y1="229.5873" x2="399.3131" y2="229.5873">
				<stop  offset="0" style="stop-color:#24F5AE"/>
				<stop  offset="1" style="stop-color:#29CDFF"/>
			</linearGradient>
			<path fill="url(#SVGID_56_)" d="M399.3,268.7c0,15.1-6.2,29.1-17.4,39.5c-1.3,1.2-3,1.8-4.7,1.8c-2,0-3.8-0.8-5.1-2.2
				c-2.6-2.8-2.5-7.2,0.4-9.8c8.3-7.7,12.9-18.1,12.9-29.3c0-14.9-8.2-28.6-21.4-35.6c-2.3-1.2-3.7-3.6-3.7-6.2v-12.4
				c0-28.4-23.1-51.5-51.5-51.5c-25.1,0-47,18.7-50.9,43.5c-0.4,2.7-2.4,4.9-4.9,5.6c-2.6,0.8-5.4-0.1-7.2-2.1
				c-5.3-6-12.8-9.4-20.8-9.4c-15.3,0-27.7,12.4-27.7,27.7v18.1c0,3.9-3.1,7-7.1,7c-15.5,0-28.1,12.4-28.1,27.7c0,0.9,0,1.8,0.1,2.7
				c0.4,3.8-2.5,7.2-6.3,7.6c-3.9,0.4-7.2-2.5-7.6-6.3c-0.1-1.3-0.2-2.7-0.2-4c0-19.3,13.8-36.4,32.8-40.6l2.4-0.5v-11.6
				c0-23,18.7-41.7,41.7-41.7c6.5,0,13.1,1.6,18.9,4.6l3,1.5l1.3-3.1c3.9-9.5,10-18,17.8-24.8c11.9-10.3,27.1-15.9,42.8-15.9
				c36.1,0,65.4,29.4,65.4,65.4v8.3l1.4,0.9C390.4,233.9,399.3,250.7,399.3,268.7z"/>
			<linearGradient id="SVGID_57_" gradientUnits="userSpaceOnUse" x1="335.6089" y1="365.7024" x2="380.7105" y2="365.7024">
				<stop  offset="0" style="stop-color:#24F5AE"/>
				<stop  offset="1" style="stop-color:#29CDFF"/>
			</linearGradient>
			<path fill="url(#SVGID_57_)" d="M380.7,393.3c0,3.8-3.1,7-7,7h-31.2c-2.9,0-5.5-1.8-6.5-4.5c-1-2.7-0.3-5.8,1.8-7.7
				c0.3-0.3,7.3-6.6,14.3-14.3c11.8-13,13.6-18.8,13.9-20.2l0.1-0.3V353c-0.1-4.4-3.7-7.9-8-7.9h-0.5c-4.4,0-8.1,3.7-8.1,8.1
				c0,3.9-3.1,7-7,7c-3.9,0-7-3.1-7-7c0-12.2,9.9-22,21.9-22h0.5c12.1,0,22,9.9,22,22c0,4.4-1.6,12-15.8,28.1l-4.5,5.1h14
				C377.6,386.4,380.7,389.5,380.7,393.3z"/>
			<linearGradient id="SVGID_58_" gradientUnits="userSpaceOnUse" x1="248.1539" y1="350.125" x2="314.381" y2="350.125">
				<stop  offset="0" style="stop-color:#24F5AE"/>
				<stop  offset="1" style="stop-color:#29CDFF"/>
			</linearGradient>
			<path fill="url(#SVGID_58_)" d="M281.3,299.9c-18.3,0-33.1,14.8-33.1,33.1v34.2c0,18.3,14.8,33.1,33.1,33.1
				c18.3,0,33.1-14.9,33.1-33.1V333C314.4,314.8,299.5,299.9,281.3,299.9z M300.4,367.2c0,10.6-8.6,19.2-19.2,19.2
				c-10.6,0-19.2-8.6-19.2-19.2V333c0-10.6,8.6-19.2,19.2-19.2c10.6,0,19.2,8.6,19.2,19.2V367.2z"/>
			<linearGradient id="SVGID_59_" gradientUnits="userSpaceOnUse" x1="162.2168" y1="350.125" x2="227.9359" y2="350.125">
				<stop  offset="0" style="stop-color:#24F5AE"/>
				<stop  offset="1" style="stop-color:#29CDFF"/>
			</linearGradient>
			<path fill="url(#SVGID_59_)" d="M226.7,369.6c1,1.6,1.3,3.4,0.8,5.3c-3.5,15-16.8,25.5-32.2,25.5c-18.3,0-33.1-14.9-33.1-33.1
				V333c0-18.3,14.8-33.1,33.1-33.1c7.7,0,15.2,2.6,21.1,7.3c5.9,4.8,9.9,11.5,11.4,18.9c0.3,1.8,0,3.7-1,5.2c-1,1.6-2.6,2.6-4.5,3
				c-3.8,0.7-7.5-1.8-8.2-5.5c-1.7-8.8-9.5-15-18.8-15c-10.6,0-19.2,8.6-19.2,19.2v34.2c0,10.6,8.6,19.2,19.2,19.2
				c8.9,0,16.6-6.1,18.6-14.7c0.8-3.2,3.5-5.4,6.8-5.4c0.5,0,1.1,0.1,1.6,0.2C224.2,366.9,225.7,368,226.7,369.6z"/>
		</g>
	</g>
</g>
<linearGradient id="SVGID_60_" gradientUnits="userSpaceOnUse" x1="192.9133" y1="173.4575" x2="213.8916" y2="173.4575">
	<stop  offset="0" style="stop-color:#24F5AE"/>
	<stop  offset="1" style="stop-color:#29CDFF"/>
</linearGradient>
<circle fill="url(#SVGID_60_)" cx="203.4" cy="173.5" r="10.5"/>
<g>
	<path fill="#24FCB9" d="M35.9,304.3H10.5v-42.8h25.4v9.3H22.1v6.7h12.8v9.3H22.1v8.1h13.9V304.3z"/>
	<path fill="#24FCB9" d="M54.9,304.9c-5.4,0-9.5-1.5-12.3-4.4c-2.8-2.9-4.2-7.1-4.2-12.6c0-5.5,1.5-9.8,4.5-12.8
		c3-3,7.3-4.5,12.9-4.5c3.8,0,7.5,0.8,10.9,2.5l-3.4,8.5c-1.4-0.6-2.7-1.1-3.8-1.5s-2.4-0.5-3.7-0.5c-1.9,0-3.3,0.7-4.3,2.2
		c-1,1.4-1.5,3.5-1.5,6.1c0,5.3,2,8,5.9,8c3.4,0,6.6-1,9.7-2.9v9.1C62.5,303.9,59,304.9,54.9,304.9z"/>
	<path fill="#24FCB9" d="M100.8,287.6c0,5.4-1.5,9.7-4.4,12.7c-2.9,3-7,4.6-12.3,4.6c-5,0-9-1.6-12-4.7c-3-3.1-4.5-7.3-4.5-12.6
		c0-5.4,1.5-9.6,4.4-12.6c2.9-3,7-4.5,12.3-4.5c3.3,0,6.1,0.7,8.6,2.1c2.5,1.4,4.4,3.4,5.8,6C100.1,281.1,100.8,284.2,100.8,287.6z
		 M79.3,287.6c0,2.9,0.4,5,1.1,6.5s2,2.2,3.8,2.2c1.8,0,3-0.7,3.8-2.2s1.1-3.7,1.1-6.5c0-2.8-0.4-5-1.1-6.4c-0.7-1.4-2-2.2-3.8-2.2
		c-1.8,0-3,0.7-3.8,2.2S79.3,284.8,79.3,287.6z"/>
	<path fill="#5ADBF9" d="M145.1,304.3v-18c0-2.2-0.3-3.9-0.9-5.1s-1.6-1.7-2.9-1.7c-1.8,0-3,0.8-3.9,2.3s-1.2,3.9-1.2,7.1v15.5
		h-11.5v-18c0-2.2-0.3-3.9-0.9-5.1s-1.5-1.7-2.8-1.7c-1.8,0-3.1,0.8-3.9,2.4s-1.2,4.2-1.2,7.9v14.5h-11.5v-33.2h8.6l1.4,4.1h0.7
		c0.9-1.5,2.2-2.7,3.8-3.5s3.6-1.2,5.7-1.2c4.8,0,8.1,1.5,10.1,4.4h0.9c0.9-1.4,2.2-2.4,3.9-3.2s3.5-1.2,5.5-1.2c3.9,0,6.8,1,8.7,3
		s2.8,5.1,2.8,9.2v21.6H145.1z"/>
	<path fill="#5ADBF9" d="M202.1,304.3v-18c0-2.2-0.3-3.9-0.9-5.1s-1.6-1.7-2.9-1.7c-1.8,0-3,0.8-3.9,2.3s-1.2,3.9-1.2,7.1v15.5
		h-11.5v-18c0-2.2-0.3-3.9-0.9-5.1s-1.5-1.7-2.8-1.7c-1.8,0-3.1,0.8-3.9,2.4s-1.2,4.2-1.2,7.9v14.5h-11.5v-33.2h8.6l1.4,4.1h0.7
		c0.9-1.5,2.2-2.7,3.8-3.5s3.6-1.2,5.7-1.2c4.8,0,8.1,1.5,10.1,4.4h0.9c0.9-1.4,2.2-2.4,3.9-3.2s3.5-1.2,5.5-1.2c3.9,0,6.8,1,8.7,3
		s2.8,5.1,2.8,9.2v21.6H202.1z"/>
	<path fill="#5ADBF9" d="M242,304.3l-1.4-4.1h-0.7c-1,1.5-2.3,2.7-4,3.5s-3.7,1.2-6,1.2c-3.7,0-6.5-1.1-8.5-3.2s-3-5.1-3-9v-21.6
		h11.5v18.1c0,2.2,0.3,3.8,0.9,4.9s1.6,1.7,3,1.7c2,0,3.4-0.8,4.2-2.3s1.3-4.2,1.3-7.9v-14.5h11.5v33.2H242z"/>
	<path fill="#5ADBF9" d="M276.5,304.3v-18.1c0-2.2-0.3-3.9-1-5s-1.7-1.7-3.1-1.7c-1.9,0-3.3,0.8-4.2,2.3s-1.3,4.2-1.3,7.9v14.5
		h-11.5v-33.2h8.6l1.4,4.1h0.7c1-1.6,2.3-2.7,4.1-3.5s3.7-1.2,6-1.2c3.7,0,6.5,1.1,8.6,3.2s3.1,5.1,3.1,9v21.6H276.5z"/>
	<path fill="#5ADBF9" d="M292.5,262.8c0-1.7,0.5-3,1.4-3.8s2.5-1.3,4.6-1.3s3.7,0.4,4.7,1.3s1.5,2.1,1.5,3.8c0,3.4-2,5-6.1,5
		C294.5,267.9,292.5,266.2,292.5,262.8z M304.2,304.3h-11.5v-33.2h11.5V304.3z"/>
	<path fill="#5ADBF9" d="M325.5,295.8c1.5,0,3.4-0.4,5.5-1.1v8.3c-1.5,0.7-3,1.1-4.4,1.4s-3,0.4-4.9,0.4c-3.8,0-6.6-0.9-8.3-2.8
		s-2.5-4.8-2.5-8.7v-13.7h-4V275l5.1-3.6l3-7h7.5v6.7h8.1v8.6h-8.1v12.9C322.4,294.8,323.4,295.8,325.5,295.8z"/>
	<path fill="#5ADBF9" d="M332.5,271.1h12.1l5.6,19c0.3,1,0.5,2.2,0.6,3.6h0.2c0.2-1.3,0.4-2.5,0.7-3.5l5.8-19.1h11.7L356,306.4
		c-1.7,4.5-3.7,7.7-6.2,9.5s-5.6,2.8-9.6,2.8c-1.5,0-3.1-0.2-4.7-0.5v-9c1,0.2,2.2,0.4,3.5,0.4c1,0,1.9-0.2,2.7-0.6s1.4-0.9,2-1.7
		s1.2-1.9,1.8-3.5L332.5,271.1z"/>
</g>
<linearGradient id="SVGID_61_" gradientUnits="userSpaceOnUse" x1="92.8052" y1="130.9167" x2="313.9999" y2="130.9167">
	<stop  offset="0" style="stop-color:#24F5AE"/>
	<stop  offset="1" style="stop-color:#29CDFF"/>
</linearGradient>
<path fill="url(#SVGID_61_)" d="M311.7,41.6c-2.8-2.7-7.1-2.9-10.1-0.4c-8.6,7.2-27.5,1.7-47.6-4c-27.6-7.9-58.9-16.9-85.7-2.3
	c-10.2,5.5-28.2,27.6-33.2,51.6c-10,5.6-18,12.1-23.5,18.3c-2.7,2.6-18.8,19.1-18.8,44.9v77.5c0,4.1,3.4,7.5,7.5,7.5h163.5
	c4.1,0,7.5-3.4,7.5-7.5V105.7c1.3-1.4,2.5-2.8,3.8-4.2c21.4-24.1,36.6-48.6,37.7-50.5C314.7,48,314.3,44.1,311.7,41.6z M175.6,48.1
	c7.8-4.3,16.5-5.9,25.6-5.9c15.9,0,32.9,4.9,48.7,9.4c8.8,2.5,17.4,5,25.5,6.5C257.8,65.7,229.8,73,187.3,73
	c-12.3,0-23.7,2.1-33.9,5.5C159.5,63.7,170.3,51,175.6,48.1z M165.8,219.7h-24v-44c0.3-3.1,2.1-10,12.9-10c3,0,7,0.5,9.2,2.7
	c1.8,1.8,1.9,4.5,1.9,5L165.8,219.7z M256.3,219.7h-75.5V174c0.1-1.9-0.1-9.5-5.8-15.8c-4.7-5-11.5-7.6-20.2-7.6
	c-19.7,0-27.5,14.6-27.9,24.4l0,44.6h-19.1v-70c0-20.7,14.2-34,14.3-34.1c0.2-0.2,0.4-0.4,0.6-0.6c3-3.5,6.9-6.9,11.5-10.2
	c0.1,1.1,0.3,2.2,0.5,3.2c3,15.8,15.8,35.7,59.4,40.9c18.4,2.2,39.3-7.3,62.2-28.2V219.7z M195.9,134.1c-27.8-3.3-43.4-13-46.5-28.9
	c-0.5-2.9-0.7-5.8-0.5-8.8c11.1-5,24.3-8.4,38.4-8.4c43.1,0,72.6-7.2,92.1-15.2C256.4,102.5,222.6,137.3,195.9,134.1z"/>
</svg>
