<?xml version="1.0" encoding="utf-8"?>
<!-- Generator: Adobe Illustrator 18.0.0, SVG Export Plug-In . SVG Version: 6.00 Build 0)  -->
<!DOCTYPE svg PUBLIC "-//W3C//DTD SVG 1.1//EN" "http://www.w3.org/Graphics/SVG/1.1/DTD/svg11.dtd">
<svg version="1.1" id="Capa_1" xmlns="http://www.w3.org/2000/svg" xmlns:xlink="http://www.w3.org/1999/xlink" x="0px" y="0px"
	 viewBox="0 0 283.5 283.5" enable-background="new 0 0 283.5 283.5" xml:space="preserve">
<linearGradient id="SVGID_1_" gradientUnits="userSpaceOnUse" x1="9.1041" y1="141.73" x2="274.3559" y2="141.73">
	<stop  offset="0" style="stop-color:#24F5AE"/>
	<stop  offset="1" style="stop-color:#29CDFF"/>
</linearGradient>
<path display="none" fill="url(#SVGID_1_)" d="M268.2,207.8c-7.1-11.1-24.6-17.9-44.9-25.7l-1.1-0.4c-5-1.9-10.1-3.9-15.2-6
	c-14.7-6.2-22.7-9.9-26.6-11.8l-0.2-16.7c3.3-3.8,8.6-11.9,11.3-26.4c1-0.4,2-1,2.9-1.6c6-4.2,10-12.7,10.4-18.6
	c0.1-1.7,0.6-17.1-6.7-23.4c-0.2-0.2-0.4-0.3-0.6-0.5c1.3-11,1.7-17.7,1.3-22c-2.2-22.7-24.2-46.1-57.2-46.1
	c-33,0-55,23.4-57.2,46.1c-0.4,4.4-0.1,11,1.3,22.1c-0.2,0.2-0.4,0.3-0.6,0.5c-7.7,6.7-6.7,23.4-6.7,23.4
	c0.4,5.8,4.3,14.3,10.4,18.5c0.9,0.7,1.9,1.2,2.9,1.6c2.7,14.6,8,22.6,11.4,26.4l-0.2,16.7c-3.8,1.9-11.7,5.6-26.6,11.8
	c-4.9,2.1-9.9,4-14.7,5.9l-1.6,0.6c-20.2,7.9-37.7,14.6-44.8,25.7C7.9,219.3,9,260.6,9.5,273l0.1,2l14.3-0.6l-0.1-2
	c-0.9-23.3,0.3-51.7,3.6-56.9c4.6-7.2,21.6-13.8,38-20.1c5.4-2.1,11-4.2,16.5-6.6c24.7-10.3,31.3-14.1,31.9-14.5l3.4-2.1l0.3-28.1
	l-0.1-3.4l-2.6-2.2c-0.3-0.3-7.3-6.7-9.6-25l-0.9-8.4l-7.4,2.1c-1.3-1-3.9-5.1-4.1-7.6c-0.2-4.1,0.5-8.5,1.3-10.7l7.9,1.7l-1.3-10
	c-1.1-8.2-2.5-19.7-2-24.7c1.6-16.3,18-33.1,42.9-33.1c24.9,0,41.3,16.9,42.9,33.2c0.5,5-0.9,16.5-2,24.7l-0.9,9.4l7.5-1.2
	c0.8,2.1,1.6,6.5,1.3,10.7c-0.1,2.4-2.7,6.4-4,7.6l-7.2-2.1l-1.1,8.3c-2.4,18.5-9.5,25-9.5,25l-2.8,2.2l0.3,31.6l3.4,2.1
	c0.7,0.4,7.2,4.2,31.9,14.5c5.7,2.4,11.3,4.6,16.6,6.6c16.4,6.4,33.4,13,38,20.1c3.3,5.2,4.5,33.6,3.6,56.9l-0.1,2l14.3,0.6l0.1-2
	C274.4,264.2,275.8,219.7,268.2,207.8z"/>
<g display="none">
	<g display="inline">
		<linearGradient id="SVGID_2_" gradientUnits="userSpaceOnUse" x1="24.9359" y1="221.742" x2="258.5241" y2="221.742">
			<stop  offset="0" style="stop-color:#24F5AE"/>
			<stop  offset="1" style="stop-color:#29CDFF"/>
		</linearGradient>
		<path fill="url(#SVGID_2_)" d="M205.5,168.5H77.9c-29.2,0-53,24-53,53.5v47.8c0,2.8,2.3,5.1,5.1,5.1h223.3c2.8,0,5.1-2.3,5.1-5.1
			V222C258.5,192.5,234.8,168.5,205.5,168.5z M168.3,178.8l-1.3,3.8c-3.8,10.7-13.9,17.8-25.2,17.8c-11.3,0-21.4-7.2-25.2-17.8
			l-1.3-3.8H168.3z M248.2,264.7h-29.6V238c0-2.8-2.3-5.1-5.1-5.1c-2.8,0-5.1,2.3-5.1,5.1v26.8H75.1V238c0-2.8-2.3-5.1-5.1-5.1
			c-2.8,0-5.1,2.3-5.1,5.1v26.8H35.2V222c0-23.8,19.2-43.2,42.7-43.2h27l0.5,2.3c3.5,17.2,18.8,29.6,36.3,29.6
			c17.5,0,32.8-12.5,36.3-29.6l0.5-2.3h27c23.5,0,42.7,19.4,42.7,43.2V264.7z"/>
	</g>
	<g display="inline">
		<linearGradient id="SVGID_3_" gradientUnits="userSpaceOnUse" x1="88.7343" y1="85.6424" x2="194.7257" y2="85.6424">
			<stop  offset="0" style="stop-color:#24F5AE"/>
			<stop  offset="1" style="stop-color:#29CDFF"/>
		</linearGradient>
		<path fill="url(#SVGID_3_)" d="M157.7,8.5h-31.9c-20.4,0-37,16.6-37,37v64.3c0,29.2,23.8,53,53,53s53-23.8,53-53V45.5
			C194.7,25.1,178.1,8.5,157.7,8.5z M184.4,109.8c0,23.5-19.2,42.7-42.7,42.7c-23.5,0-42.7-19.2-42.7-42.7V84.5l4.5,3.2
			C113.6,95,127.2,99,141.7,99c14.6,0,28.2-4,38.2-11.3l4.5-3.2V109.8z M99.2,67.1h85.1l-2.6,4.3c-6.3,10.3-22.4,17.3-39.9,17.3
			c-17.6,0-33.6-7-39.9-17.3L99.2,67.1z M184.4,56.8H99V45.5c0-14.7,12-26.8,26.8-26.8h31.9c14.8,0,26.8,12,26.8,26.8V56.8z"/>
	</g>
</g>
<g display="none">
	<defs>
		<rect id="SVGID_4_" x="9.5" y="13.1" width="264.5" height="257.2"/>
	</defs>
	<clipPath id="SVGID_5_" display="inline">
		<use xlink:href="#SVGID_4_"  overflow="visible"/>
	</clipPath>
	<g display="inline" clip-path="url(#SVGID_5_)">
		<g>
			<defs>
				<rect id="SVGID_6_" x="9.5" y="13.1" width="264.5" height="257.2"/>
			</defs>
			<clipPath id="SVGID_7_">
				<use xlink:href="#SVGID_6_"  overflow="visible"/>
			</clipPath>
			<linearGradient id="SVGID_8_" gradientUnits="userSpaceOnUse" x1="106.4418" y1="230.0779" x2="146.811" y2="230.0779">
				<stop  offset="0" style="stop-color:#24F5AE"/>
				<stop  offset="1" style="stop-color:#29CDFF"/>
			</linearGradient>
			<path clip-path="url(#SVGID_7_)" fill="url(#SVGID_8_)" d="M126.6,209.9c-11.1,0-20.2,9-20.2,20.2c0,11.1,9,20.2,20.2,20.2
				c11.1,0,20.2-9,20.2-20.2C146.8,218.9,137.8,209.9,126.6,209.9L126.6,209.9z M126.6,239c-4.9,0-8.9-4-8.9-8.9
				c0-4.9,4-8.9,8.9-8.9c4.9,0,8.9,4,8.9,8.9C135.5,235,131.5,239,126.6,239L126.6,239z M126.6,239"/>
			<linearGradient id="SVGID_9_" gradientUnits="userSpaceOnUse" x1="9.4593" y1="141.5865" x2="274.0015" y2="141.5865">
				<stop  offset="0" style="stop-color:#24F5AE"/>
				<stop  offset="1" style="stop-color:#29CDFF"/>
			</linearGradient>
			<path clip-path="url(#SVGID_7_)" fill="url(#SVGID_9_)" d="M266.6,177.9l-104.3,34.3c-7.9-15.8-25.2-24.5-42.6-21.4l-50.1-152
				C66.5,29.2,58.4,22,48.5,20l-32.3-6.7c-3.1-0.6-6,1.3-6.7,4.4c-0.6,3.1,1.3,6,4.4,6.7L46.2,31c5.9,1.2,10.8,5.5,12.7,11.3
				l50.1,152c-17.7,8.7-26.3,29-20.4,47.8c5.9,18.8,24.7,30.5,44.1,27.5c19.5-3,33.8-19.8,33.8-39.5c0-2.4-0.2-4.8-0.7-7.2
				l104.3-34.3c2.9-1,4.6-4.1,3.6-7.1c-0.5-1.4-1.5-2.6-2.8-3.3C269.6,177.5,268,177.4,266.6,177.9L266.6,177.9z M126.6,258.7
				c-15.8,0-28.6-12.8-28.6-28.6c0-15.8,12.8-28.6,28.6-28.6s28.6,12.8,28.6,28.6C155.2,245.9,142.4,258.7,126.6,258.7L126.6,258.7z
				 M126.6,258.7"/>
		</g>
		<linearGradient id="SVGID_10_" gradientUnits="userSpaceOnUse" x1="107.5733" y1="114.3808" x2="265.7173" y2="114.3808">
			<stop  offset="0" style="stop-color:#24F5AE"/>
			<stop  offset="1" style="stop-color:#29CDFF"/>
		</linearGradient>
		<path fill="url(#SVGID_10_)" d="M114.1,108.6c0,0.3,0.1,0.6,0.2,1c0.1,0.3,0.2,0.6,0.4,0.9l22.6,68.6c1.5,4.8,4.9,8.7,9.4,10.9
			c2.6,1.3,5.6,2,8.5,2c2,0,4-0.3,5.9-1l91.6-30.2c9.9-3.3,15.3-13.9,12-23.9L236,49.7c-1.5-4.8-4.9-8.7-9.4-10.9
			c-4.5-2.3-9.7-2.6-14.4-1.1l-91.6,30.2c-4.8,1.5-8.7,4.9-10.9,9.4c-2.3,4.5-2.6,9.7-1.1,14.4L114.1,108.6z M249.2,150.2
			l-91.6,30.2c-4,1.3-8.3-0.9-9.6-4.8l-21.1-64.1L233,76.5l21.1,64.1C255.3,144.6,253.2,148.9,249.2,150.2L249.2,150.2z M124.1,78.6
			l91.6-30.2c0.8-0.3,1.6-0.4,2.4-0.4c1.2,0,2.4,0.3,3.4,0.8c1.8,0.9,3.2,2.5,3.8,4.4l4.1,12.5l-106.1,34.9l-4.1-12.5
			c-0.6-1.9-0.5-4,0.4-5.8C120.6,80.6,122.2,79.2,124.1,78.6L124.1,78.6z M124.1,78.6"/>
	</g>
</g>
<g display="none">
	<linearGradient id="SVGID_11_" gradientUnits="userSpaceOnUse" x1="40.2016" y1="210.7684" x2="121.4218" y2="210.7684">
		<stop  offset="0" style="stop-color:#24F5AE"/>
		<stop  offset="1" style="stop-color:#29CDFF"/>
	</linearGradient>
	<rect x="40.2" y="206.8" display="inline" fill="url(#SVGID_11_)" width="81.2" height="8"/>
	<linearGradient id="SVGID_12_" gradientUnits="userSpaceOnUse" x1="137.7514" y1="218.891" x2="145.7029" y2="218.891">
		<stop  offset="0" style="stop-color:#24F5AE"/>
		<stop  offset="1" style="stop-color:#29CDFF"/>
	</linearGradient>
	<rect x="137.8" y="206.7" display="inline" fill="url(#SVGID_12_)" width="8" height="24.4"/>
	<linearGradient id="SVGID_13_" gradientUnits="userSpaceOnUse" x1="162.1226" y1="218.891" x2="170.0742" y2="218.891">
		<stop  offset="0" style="stop-color:#24F5AE"/>
		<stop  offset="1" style="stop-color:#29CDFF"/>
	</linearGradient>
	<rect x="162.1" y="206.7" display="inline" fill="url(#SVGID_13_)" width="8" height="24.4"/>
	<linearGradient id="SVGID_14_" gradientUnits="userSpaceOnUse" x1="186.4882" y1="218.891" x2="194.4397" y2="218.891">
		<stop  offset="0" style="stop-color:#24F5AE"/>
		<stop  offset="1" style="stop-color:#29CDFF"/>
	</linearGradient>
	<rect x="186.5" y="206.7" display="inline" fill="url(#SVGID_14_)" width="8" height="24.4"/>
	<linearGradient id="SVGID_15_" gradientUnits="userSpaceOnUse" x1="210.8512" y1="218.891" x2="218.8028" y2="218.891">
		<stop  offset="0" style="stop-color:#24F5AE"/>
		<stop  offset="1" style="stop-color:#29CDFF"/>
	</linearGradient>
	<rect x="210.9" y="206.7" display="inline" fill="url(#SVGID_15_)" width="8" height="24.4"/>
	<linearGradient id="SVGID_16_" gradientUnits="userSpaceOnUse" x1="235.2224" y1="218.891" x2="243.174" y2="218.891">
		<stop  offset="0" style="stop-color:#24F5AE"/>
		<stop  offset="1" style="stop-color:#29CDFF"/>
	</linearGradient>
	<rect x="235.2" y="206.7" display="inline" fill="url(#SVGID_16_)" width="8" height="24.4"/>
	<linearGradient id="SVGID_17_" gradientUnits="userSpaceOnUse" x1="11.773" y1="141.73" x2="271.687" y2="141.73">
		<stop  offset="0" style="stop-color:#24F5AE"/>
		<stop  offset="1" style="stop-color:#29CDFF"/>
	</linearGradient>
	<path display="inline" fill="url(#SVGID_17_)" d="M267.5,255.5V135.3l-57.2,28.6l-8-143.9h-40l-8.2,131.4L129,163.9l-8-107.4H81.2
		L73,151.4l-57.1,28.5v75.6h-4.1v8h259.9v-8H267.5z M169.8,27.9h25l0.5,8.3h-26L169.8,27.9z M168.8,44.2h26.9l0.5,8.3h-27.9
		L168.8,44.2z M167.8,60.4h28.8l6,107.3l-16.3,8.1v-40.6l-23.9,12L167.8,60.4z M88.5,64.5h25.2l0.6,8.3H87.8L88.5,64.5z M87.1,80.7
		h27.8l0.6,8.3H86.4L87.1,80.7z M85.7,97h30.4l5.2,70.8l-16.2,8.1v-40.6l-23.8,11.9L85.7,97z M40.3,255.5H23.9v-8.3h16.4V255.5z
		 M113.4,255.5H48.2v-28.6h65.1V255.5z M259.6,255.5H121.3v-8.3h138.3V255.5z M259.6,239.3H121.3V219H40.3v20.3H23.9v-54.5
		l73.3-36.6v40.6l81.2-40.6v40.6l81.2-40.6V239.3z M259.6,239.3"/>
</g>
<g display="none">
	<g display="inline">
		<defs>
			<rect id="SVGID_18_" x="34.7" y="16.1" width="214" height="251.3"/>
		</defs>
		<clipPath id="SVGID_19_">
			<use xlink:href="#SVGID_18_"  overflow="visible"/>
		</clipPath>
		<linearGradient id="SVGID_20_" gradientUnits="userSpaceOnUse" x1="34.7496" y1="141.7298" x2="248.7086" y2="141.7298">
			<stop  offset="0" style="stop-color:#24F5AE"/>
			<stop  offset="1" style="stop-color:#29CDFF"/>
		</linearGradient>
		<path clip-path="url(#SVGID_19_)" fill="url(#SVGID_20_)" d="M248.5,84.3l0-0.2c-0.1-2.4-0.2-5-0.2-7.8
			C248,62.4,237,51,223.2,50.2c-28.9-1.6-51.2-11-70.3-29.6l-0.2-0.2c-6.2-5.7-15.6-5.7-21.9,0l-0.2,0.2
			c-19.1,18.6-41.4,28-70.3,29.6C46.5,51,35.4,62.4,35.2,76.3c0,2.8-0.1,5.4-0.2,7.8l0,0.5c-0.6,29.5-1.3,66.1,11,99.4
			c6.7,18.3,17,34.2,30.4,47.3c15.3,14.9,35.2,26.7,59.4,35.1c0.8,0.3,1.6,0.5,2.4,0.7c1.2,0.2,2.4,0.4,3.5,0.4
			c1.2,0,2.4-0.1,3.5-0.4c0.8-0.2,1.7-0.4,2.4-0.7c24.1-8.4,44.1-20.3,59.3-35.2c13.4-13.1,23.6-29,30.4-47.3
			C249.7,150.5,249,113.8,248.5,84.3L248.5,84.3z M223.6,178.8c-12.9,35.1-39.3,59.2-80.7,73.6c-0.1,0.1-0.3,0.1-0.5,0.1
			c-0.4,0.1-0.9,0.1-1.3,0c-0.2,0-0.3-0.1-0.5-0.1c-41.4-14.4-67.9-38.5-80.8-73.6c-11.3-30.7-10.7-64.3-10.1-94l0-0.2
			c0.1-2.6,0.2-5.2,0.2-8.2c0.1-6.2,5-11.2,11.2-11.6c16.3-0.9,30.7-4.1,43.9-9.7c13.2-5.6,24.9-13.4,35.8-24c0.6-0.5,1.3-0.5,1.8,0
			c10.9,10.6,22.6,18.5,35.8,24c13.2,5.6,27.6,8.7,43.9,9.7c6.2,0.3,11.1,5.4,11.2,11.6c0,3,0.1,5.6,0.2,8.2
			C234.3,114.4,234.9,148.1,223.6,178.8L223.6,178.8z M223.6,178.8"/>
	</g>
	<linearGradient id="SVGID_21_" gradientUnits="userSpaceOnUse" x1="79.1111" y1="141.7346" x2="204.345" y2="141.7346">
		<stop  offset="0" style="stop-color:#24F5AE"/>
		<stop  offset="1" style="stop-color:#29CDFF"/>
	</linearGradient>
	<path display="inline" fill="url(#SVGID_21_)" d="M141.7,79.1c-34.5,0-62.6,28.1-62.6,62.6c0,34.5,28.1,62.6,62.6,62.6
		c34.5,0,62.6-28.1,62.6-62.6C204.3,107.2,176.3,79.1,141.7,79.1L141.7,79.1z M141.7,189.6c-26.4,0-47.9-21.5-47.9-47.9
		s21.5-47.9,47.9-47.9c26.4,0,47.9,21.5,47.9,47.9S168.1,189.6,141.7,189.6L141.7,189.6z M141.7,189.6"/>
	<linearGradient id="SVGID_22_" gradientUnits="userSpaceOnUse" x1="110.1623" y1="144.6541" x2="172.3084" y2="144.6541">
		<stop  offset="0" style="stop-color:#24F5AE"/>
		<stop  offset="1" style="stop-color:#29CDFF"/>
	</linearGradient>
	<path display="inline" fill="url(#SVGID_22_)" d="M159.7,122.3l-29.1,29.1l-7.9-7.9c-2.9-2.9-7.5-2.9-10.4,0
		c-2.9,2.9-2.9,7.5,0,10.4l13.1,13.1c1.4,1.4,3.3,2.2,5.2,2.2c1.9,0,3.8-0.7,5.2-2.2l34.3-34.3c2.9-2.9,2.9-7.5,0-10.4
		C167.3,119.4,162.6,119.4,159.7,122.3L159.7,122.3z M159.7,122.3"/>
</g>
<g display="none">
	<g display="inline">
		<defs>
			<rect id="SVGID_23_" x="34.7" y="12.8" width="214" height="257.9"/>
		</defs>
		<clipPath id="SVGID_24_">
			<use xlink:href="#SVGID_23_"  overflow="visible"/>
		</clipPath>
		<linearGradient id="SVGID_25_" gradientUnits="userSpaceOnUse" x1="34.7495" y1="141.5119" x2="248.7989" y2="141.5119">
			<stop  offset="0" style="stop-color:#24F5AE"/>
			<stop  offset="1" style="stop-color:#29CDFF"/>
		</linearGradient>
		<path clip-path="url(#SVGID_24_)" fill="url(#SVGID_25_)" d="M230.4,12.8H88.2c-10.1,0-18.4,8.2-18.4,18.4v11.7H53.1
			c-10.1,0-18.4,8.2-18.4,18.4v190.7c0,10.1,8.2,18.4,18.4,18.4h142.2c10.1,0,18.4-8.2,18.4-18.4v-11.7h16.7
			c10.1,0,18.4-8.2,18.4-18.4V31.1C248.8,21,240.6,12.8,230.4,12.8L230.4,12.8z M199,251.9c0,2-1.7,3.7-3.7,3.7H53.1
			c-2,0-3.7-1.7-3.7-3.7V61.2c0-2,1.7-3.7,3.7-3.7h16.7v164.3c0,10.1,8.2,18.4,18.4,18.4H199V251.9z M234.1,221.8
			c0,2-1.6,3.7-3.7,3.7H88.2c-2,0-3.7-1.6-3.7-3.7V31.1c0-2,1.6-3.7,3.7-3.7h142.2c2,0,3.7,1.7,3.7,3.7V221.8z M234.1,221.8"/>
	</g>
	<linearGradient id="SVGID_26_" gradientUnits="userSpaceOnUse" x1="98.1008" y1="65.7278" x2="220.5314" y2="65.7278">
		<stop  offset="0" style="stop-color:#24F5AE"/>
		<stop  offset="1" style="stop-color:#29CDFF"/>
	</linearGradient>
	<path display="inline" fill="url(#SVGID_26_)" d="M213.2,58.4H105.4c-4.1,0-7.3,3.3-7.3,7.3c0,4.1,3.3,7.3,7.3,7.3h107.7
		c4.1,0,7.3-3.3,7.3-7.3C220.5,61.7,217.2,58.4,213.2,58.4L213.2,58.4z M213.2,58.4"/>
	<linearGradient id="SVGID_27_" gradientUnits="userSpaceOnUse" x1="98.1008" y1="100.6936" x2="220.5314" y2="100.6936">
		<stop  offset="0" style="stop-color:#24F5AE"/>
		<stop  offset="1" style="stop-color:#29CDFF"/>
	</linearGradient>
	<path display="inline" fill="url(#SVGID_27_)" d="M213.2,93.3H105.4c-4.1,0-7.3,3.3-7.3,7.3c0,4.1,3.3,7.3,7.3,7.3h107.7
		c4.1,0,7.3-3.3,7.3-7.3C220.5,96.6,217.2,93.3,213.2,93.3L213.2,93.3z M213.2,93.3"/>
	<linearGradient id="SVGID_28_" gradientUnits="userSpaceOnUse" x1="98.1008" y1="135.657" x2="220.5314" y2="135.657">
		<stop  offset="0" style="stop-color:#24F5AE"/>
		<stop  offset="1" style="stop-color:#29CDFF"/>
	</linearGradient>
	<path display="inline" fill="url(#SVGID_28_)" d="M213.2,128.3H105.4c-4.1,0-7.3,3.3-7.3,7.3c0,4.1,3.3,7.3,7.3,7.3h107.7
		c4.1,0,7.3-3.3,7.3-7.3C220.5,131.6,217.2,128.3,213.2,128.3L213.2,128.3z M213.2,128.3"/>
	<linearGradient id="SVGID_29_" gradientUnits="userSpaceOnUse" x1="98.1008" y1="170.6231" x2="220.5314" y2="170.6231">
		<stop  offset="0" style="stop-color:#24F5AE"/>
		<stop  offset="1" style="stop-color:#29CDFF"/>
	</linearGradient>
	<path display="inline" fill="url(#SVGID_29_)" d="M213.2,163.3H105.4c-4.1,0-7.3,3.3-7.3,7.3c0,4.1,3.3,7.3,7.3,7.3h107.7
		c4.1,0,7.3-3.3,7.3-7.3C220.5,166.6,217.2,163.3,213.2,163.3L213.2,163.3z M213.2,163.3"/>
</g>
<g>
	<linearGradient id="SVGID_30_" gradientUnits="userSpaceOnUse" x1="85.105" y1="144.6541" x2="198.355" y2="144.6541">
		<stop  offset="0" style="stop-color:#24F5AE"/>
		<stop  offset="1" style="stop-color:#29CDFF"/>
	</linearGradient>
	<path fill="url(#SVGID_30_)" d="M180.4,176.8c5.7,0,10.4,4.7,10.4,10.4s-4.7,10.4-10.4,10.4h-10.1v7.6h8.1
		c6.8,0,12.2,5.3,12.2,12.2v32.4c0,6.8-5.3,12.7-12.2,12.7h-14.3c1.2-3,1.8-5.6,1.8-8.6h-7.6c0,6.8-5.6,12.7-12.4,12.7h-8.1
		c-6.8,0-12.4-5.8-12.4-12.7h-7.6c0,3,0.7,5.6,1.8,8.6h-14.3c-6.8,0-12.7-5.8-12.7-12.7v-32.4c0-6.8,5.8-12.2,12.7-12.2h40.5v-7.6
		h-42.6c-5.7,0-10.4-4.7-10.4-10.4s4.7-10.4,10.4-10.4h42.6v-7.6h-42.6c-5.7,0-10.4-4.7-10.4-10.4c0-5.7,4.7-10.4,10.4-10.4h42.6
		v-7.6h-40.5c-6.8,0-12.7-5.8-12.7-12.7V95.7h97.8v32.4c0,6.8-5.3,12.7-12.2,12.7h-8.1v7.6h10.1c5.7,0,10.4,4.7,10.4,10.4
		c0,5.7-4.7,10.4-10.4,10.4h-10.1v7.6H180.4L180.4,176.8z M131.6,43h20.6l34.7,45.1h-90L131.6,43L131.6,43z M121.1,35.4V22.8h41
		v12.7H121.1L121.1,35.4z M198.3,187c0-5.8-2.7-10.9-6.9-14.2c4.2-3.3,7-8.4,7-14.2c0-6.1-3.1-11.4-7.8-14.7
		c4.6-3.7,7.5-9.3,7.5-15.7V90.4L161.7,43h8V15.2h-56.3V43h8.5L85.1,90.4v37.8c0,6.4,3.1,12,7.8,15.7c-4.6,3.3-7.6,8.6-7.6,14.7
		c0,5.8,2.8,10.9,7,14.2c-4.2,3.3-6.9,8.4-6.9,14.2c0,6.1,2.9,11.4,7.5,14.7c-4.6,3.7-7.8,9.3-7.8,15.7v32.4
		c0,11,9.2,20.3,20.3,20.3h20.3v-0.3c3.4,2.6,7.6,4.4,12.2,4.4h8.1c4.6,0,8.8-1.8,12.2-4.4v0.3h20.3c11,0,19.8-9.2,19.8-20.3v-32.4
		c0-6.4-2.9-12-7.5-15.7C195.2,198.4,198.3,193,198.3,187L198.3,187z"/>
	<linearGradient id="SVGID_31_" gradientUnits="userSpaceOnUse" x1="113.4868" y1="75.7317" x2="121.5954" y2="75.7317">
		<stop  offset="0" style="stop-color:#24F5AE"/>
		<stop  offset="1" style="stop-color:#29CDFF"/>
	</linearGradient>
	<polygon fill="url(#SVGID_31_)" points="113.5,71.9 121.6,71.9 121.6,79.5 113.5,79.5 113.5,71.9 	"/>
	<linearGradient id="SVGID_32_" gradientUnits="userSpaceOnUse" x1="121.5954" y1="67.6231" x2="129.7039" y2="67.6231">
		<stop  offset="0" style="stop-color:#24F5AE"/>
		<stop  offset="1" style="stop-color:#29CDFF"/>
	</linearGradient>
	<polygon fill="url(#SVGID_32_)" points="121.6,63.8 129.7,63.8 129.7,71.4 121.6,71.4 121.6,63.8 	"/>
	<linearGradient id="SVGID_33_" gradientUnits="userSpaceOnUse" x1="154.0293" y1="173.0338" x2="162.1377" y2="173.0338">
		<stop  offset="0" style="stop-color:#24F5AE"/>
		<stop  offset="1" style="stop-color:#29CDFF"/>
	</linearGradient>
	<polygon fill="url(#SVGID_33_)" points="154,169.2 162.1,169.2 162.1,176.8 154,176.8 154,169.2 	"/>
	<linearGradient id="SVGID_34_" gradientUnits="userSpaceOnUse" x1="154.0293" y1="144.654" x2="162.1377" y2="144.654">
		<stop  offset="0" style="stop-color:#24F5AE"/>
		<stop  offset="1" style="stop-color:#29CDFF"/>
	</linearGradient>
	<polygon fill="url(#SVGID_34_)" points="154,140.9 162.1,140.9 162.1,148.5 154,148.5 154,140.9 	"/>
	<linearGradient id="SVGID_35_" gradientUnits="userSpaceOnUse" x1="154.0293" y1="201.4136" x2="162.1377" y2="201.4136">
		<stop  offset="0" style="stop-color:#24F5AE"/>
		<stop  offset="1" style="stop-color:#29CDFF"/>
	</linearGradient>
	<polygon fill="url(#SVGID_35_)" points="154,197.6 162.1,197.6 162.1,205.2 154,205.2 154,197.6 	"/>
</g>
<g display="none">
	<linearGradient id="SVGID_36_" gradientUnits="userSpaceOnUse" x1="107.8569" y1="141.73" x2="190.678" y2="141.73">
		<stop  offset="0" style="stop-color:#24F5AE"/>
		<stop  offset="1" style="stop-color:#29CDFF"/>
	</linearGradient>
	<path display="inline" fill="url(#SVGID_36_)" d="M107.9,270.3h78.2c2.5,0,4.6-2.1,4.6-4.6V105c0-14.4-9.4-26.8-23-30.8l0,0v-37
		c2.9-2.6,4.6-6.3,4.6-10.2c0-7.6-6.2-13.8-13.8-13.8h-18.4c-7.6,0-13.8,6.2-13.8,13.8c0,4.1,1.8,7.7,4.6,10.3v37
		c-13.5,4-23,16.4-23,30.8v18.4c0,2.5,2.1,4.6,4.6,4.6c2.5,0,4.6-2.1,4.6-4.6V105c0-11,8.2-20.8,19.1-22.6c0.4-0.1,0.7-0.2,1.1-0.3
		h23.8c0.3,0.2,0.7,0.3,1.1,0.3c10.9,1.9,19.1,11.6,19.1,22.6v18.4h-32.1c-2.5,0-4.6,2.1-4.6,4.6v87.2c0,2.5,2.1,4.6,4.6,4.6h32.1
		v41.3h-64.3V141.7c0-0.1-9.4,0.1-9.4,0 M144.8,40.7c2.5,0,4.6-2.1,4.6-4.6c0-2.5-2.1-4.6-4.6-4.6h-4.6c-2.5,0-4.6-2.1-4.6-4.6
		c0-2.5,2.1-4.6,4.6-4.6h18.4c2.5,0,4.6,2.1,4.6,4.6c0,1.6-0.9,3.1-2.3,4c-1.7,1-2.5,2.8-2.2,4.6c0,0.2,0,0.4,0,0.6v36.7h-18.4V40.7
		H144.8z M108.1,210.9v50.2 M154,210.6v-78h27.5v78H154z M154,210.6"/>
</g>
<g display="none">
	<linearGradient id="SVGID_37_" gradientUnits="userSpaceOnUse" x1="9.4176" y1="141.73" x2="274.0424" y2="141.73">
		<stop  offset="0" style="stop-color:#24F5AE"/>
		<stop  offset="1" style="stop-color:#29CDFF"/>
	</linearGradient>
	<path display="inline" fill="url(#SVGID_37_)" d="M168.5,166.6c0,9.7,3.2,19,8.9,26.6h-72.2c5.8-7.6,9-16.9,9-26.6
		c0-9.4-3-18.5-8.5-26H177C171.5,148.1,168.5,157.2,168.5,166.6L168.5,166.6z M46.9,129.1c-9.7-4-17.8-11.2-23.1-20.2h96v23.8H98.4
		c-7.9-6.6-17.9-10.2-28.2-10.2C61.9,122.5,53.9,124.8,46.9,129.1L46.9,129.1z M127.7,71.7h138.4c-2,34-30.4,61.1-64.9,61.1h-15.4
		h-58.1V71.7L127.7,71.7z M187.4,140.6h13.8c40.2,0,72.9-32.7,72.9-72.9c0-2.2-1.8-3.9-3.9-3.9H123.8c-2.2,0-3.9,1.8-3.9,3.9v13
		H57.4c-2.2,0-3.9,1.8-3.9,3.9c0,2.2,1.8,3.9,3.9,3.9h62.5v12.5H20.2c-1.5-4-2.4-8.2-2.7-12.5h26.8c2.2,0,3.9-1.8,3.9-3.9
		c0-2.2-1.8-3.9-3.9-3.9H13.3c-2.2,0-3.9,1.8-3.9,3.9c0,7.6,1.5,14.9,4.4,21.9c0,0,0,0,0,0c6,14.2,17.8,25.3,32.2,30.6
		c1.2,0.4,2.5,0.3,3.6-0.5c6-4.2,13.1-6.4,20.5-6.4c8.9,0,17.5,3.3,24.1,9.2c0,0,0.1,0.1,0.1,0.1c7.6,6.9,12,16.7,12,26.9
		c0,10.1-4.2,19.7-11.7,26.6H77c-2.2,0-3.9,1.8-3.9,3.9v18.7c0,2.2,1.8,3.9,3.9,3.9h97.6c2.2,0,3.9-1.8,3.9-3.9
		c0-2.2-1.8-3.9-3.9-3.9H80.9V201h121.4v10.8h-14.4c-2.2,0-3.9,1.8-3.9,3.9c0,2.2,1.8,3.9,3.9,3.9h18.4c2.2,0,3.9-1.8,3.9-3.9v-18.7
		c0-2.2-1.8-3.9-3.9-3.9H188c-7.4-6.9-11.7-16.5-11.7-26.6C176.4,156.8,180.4,147.4,187.4,140.6L187.4,140.6z"/>
</g>
<g display="none">
	<g display="inline">
		<defs>
			<rect id="SVGID_38_" x="47.7" y="12.1" width="188" height="259.3"/>
		</defs>
		<clipPath id="SVGID_39_">
			<use xlink:href="#SVGID_38_"  overflow="visible"/>
		</clipPath>
		<linearGradient id="SVGID_40_" gradientUnits="userSpaceOnUse" x1="47.733" y1="141.73" x2="235.7274" y2="141.73">
			<stop  offset="0" style="stop-color:#24F5AE"/>
			<stop  offset="1" style="stop-color:#29CDFF"/>
		</linearGradient>
		<path clip-path="url(#SVGID_39_)" fill="url(#SVGID_40_)" d="M223.6,230.7c-0.3,0.4-1,1.4-2.5,1.4H62.4c-1.5,0-2.2-1-2.5-1.4
			c-0.3-0.4-0.8-1.6-0.1-2.9l11.9-22.4h140l11.9,22.4C224.4,229.1,223.9,230.3,223.6,230.7L223.6,230.7z M141.7,259.7
			c-9.1,0-16.6-7-17.4-15.9h34.9C158.3,252.7,150.8,259.7,141.7,259.7L141.7,259.7z M73.8,140c0-37.5,30.5-67.9,67.9-67.9
			s67.9,30.5,67.9,67.9v53.8H73.8V140L73.8,140z M131.3,34.2c0-5.7,4.7-10.4,10.4-10.4c5.7,0,10.4,4.7,10.4,10.4V61
			c-3.4-0.4-6.9-0.7-10.4-0.7c-3.5,0-7,0.2-10.4,0.7V34.2L131.3,34.2z M234,222.3l-12.6-23.7V140c0-36.2-24.3-66.9-57.5-76.5V34.2
			c0-12.2-9.9-22.1-22.1-22.1c-12.2,0-22.1,9.9-22.1,22.1v29.3c-33.2,9.6-57.5,40.3-57.5,76.5v58.6l-12.6,23.7
			c-2.4,4.6-2.3,10,0.4,14.4c2.7,4.4,7.3,7.1,12.5,7.1h50.2c0.9,15.3,13.6,27.6,29.2,27.6s28.3-12.2,29.2-27.6h50.2
			c5.2,0,9.9-2.7,12.5-7.1C236.3,232.3,236.4,226.9,234,222.3L234,222.3z"/>
	</g>
	<linearGradient id="SVGID_41_" gradientUnits="userSpaceOnUse" x1="89.3837" y1="116.7022" x2="147.5749" y2="116.7022">
		<stop  offset="0" style="stop-color:#24F5AE"/>
		<stop  offset="1" style="stop-color:#29CDFF"/>
	</linearGradient>
	<path display="inline" fill="url(#SVGID_41_)" d="M141.7,87.6c-28.9,0-52.3,23.5-52.3,52.3c0,3.2,2.6,5.8,5.8,5.8
		c3.2,0,5.8-2.6,5.8-5.8c0-22.4,18.2-40.7,40.7-40.7c3.2,0,5.8-2.6,5.8-5.8C147.6,90.2,145,87.6,141.7,87.6L141.7,87.6z"/>
</g>
<g display="none">
	<linearGradient id="SVGID_42_" gradientUnits="userSpaceOnUse" x1="25.2168" y1="132.7674" x2="258.2431" y2="132.7674">
		<stop  offset="0" style="stop-color:#24F5AE"/>
		<stop  offset="1" style="stop-color:#29CDFF"/>
	</linearGradient>
	<path display="inline" fill="url(#SVGID_42_)" d="M34.2,249.3h215.1v-233H34.2V249.3L34.2,249.3z M253.8,258.2H29.7
		c-2.7,0-4.5-1.8-4.5-4.5v-242c0-2.7,1.8-4.5,4.5-4.5h224.1c2.7,0,4.5,1.8,4.5,4.5v242C258.2,256.5,256.5,258.2,253.8,258.2
		L253.8,258.2z"/>
	<linearGradient id="SVGID_43_" gradientUnits="userSpaceOnUse" x1="7.2917" y1="262.7244" x2="276.1683" y2="262.7244">
		<stop  offset="0" style="stop-color:#24F5AE"/>
		<stop  offset="1" style="stop-color:#29CDFF"/>
	</linearGradient>
	<path display="inline" fill="url(#SVGID_43_)" d="M16.3,267.2h251v-9h-251V267.2L16.3,267.2z M271.7,276.2H11.8
		c-2.7,0-4.5-1.8-4.5-4.5v-17.9c0-2.7,1.8-4.5,4.5-4.5h259.9c2.7,0,4.5,1.8,4.5,4.5v17.9C276.2,274.4,274.4,276.2,271.7,276.2
		L271.7,276.2z"/>
	<linearGradient id="SVGID_44_" gradientUnits="userSpaceOnUse" x1="52.1044" y1="47.6232" x2="96.9173" y2="47.6232">
		<stop  offset="0" style="stop-color:#24F5AE"/>
		<stop  offset="1" style="stop-color:#29CDFF"/>
	</linearGradient>
	<path display="inline" fill="url(#SVGID_44_)" d="M61.1,56.6H88V38.7H61.1V56.6L61.1,56.6z M92.4,65.5H56.6c-2.7,0-4.5-1.8-4.5-4.5
		V34.2c0-2.7,1.8-4.5,4.5-4.5h35.8c2.7,0,4.5,1.8,4.5,4.5v26.9C96.9,63.8,95.1,65.5,92.4,65.5L92.4,65.5z"/>
	<linearGradient id="SVGID_45_" gradientUnits="userSpaceOnUse" x1="52.1044" y1="96.9172" x2="96.9173" y2="96.9172">
		<stop  offset="0" style="stop-color:#24F5AE"/>
		<stop  offset="1" style="stop-color:#29CDFF"/>
	</linearGradient>
	<path display="inline" fill="url(#SVGID_45_)" d="M61.1,105.9H88V88H61.1V105.9L61.1,105.9z M92.4,114.8H56.6
		c-2.7,0-4.5-1.8-4.5-4.5V83.5c0-2.7,1.8-4.5,4.5-4.5h35.8c2.7,0,4.5,1.8,4.5,4.5v26.9C96.9,113,95.1,114.8,92.4,114.8L92.4,114.8z"
		/>
	<linearGradient id="SVGID_46_" gradientUnits="userSpaceOnUse" x1="119.3235" y1="96.9172" x2="164.136" y2="96.9172">
		<stop  offset="0" style="stop-color:#24F5AE"/>
		<stop  offset="1" style="stop-color:#29CDFF"/>
	</linearGradient>
	<path display="inline" fill="url(#SVGID_46_)" d="M128.3,105.9h26.9V88h-26.9V105.9L128.3,105.9z M159.7,114.8h-35.9
		c-2.7,0-4.5-1.8-4.5-4.5V83.5c0-2.7,1.8-4.5,4.5-4.5h35.9c2.7,0,4.5,1.8,4.5,4.5v26.9C164.1,113,162.3,114.8,159.7,114.8
		L159.7,114.8z"/>
	<linearGradient id="SVGID_47_" gradientUnits="userSpaceOnUse" x1="186.5428" y1="96.9172" x2="231.3553" y2="96.9172">
		<stop  offset="0" style="stop-color:#24F5AE"/>
		<stop  offset="1" style="stop-color:#29CDFF"/>
	</linearGradient>
	<path display="inline" fill="url(#SVGID_47_)" d="M195.5,105.9h26.9V88h-26.9V105.9L195.5,105.9z M226.9,114.8H191
		c-2.7,0-4.5-1.8-4.5-4.5V83.5c0-2.7,1.8-4.5,4.5-4.5h35.9c2.7,0,4.5,1.8,4.5,4.5v26.9C231.4,113,229.6,114.8,226.9,114.8
		L226.9,114.8z"/>
	<linearGradient id="SVGID_48_" gradientUnits="userSpaceOnUse" x1="119.3235" y1="146.211" x2="164.136" y2="146.211">
		<stop  offset="0" style="stop-color:#24F5AE"/>
		<stop  offset="1" style="stop-color:#29CDFF"/>
	</linearGradient>
	<path display="inline" fill="url(#SVGID_48_)" d="M128.3,155.2h26.9v-17.9h-26.9V155.2L128.3,155.2z M159.7,164.1h-35.9
		c-2.7,0-4.5-1.8-4.5-4.5v-26.9c0-2.7,1.8-4.5,4.5-4.5h35.9c2.7,0,4.5,1.8,4.5,4.5v26.9C164.1,162.3,162.3,164.1,159.7,164.1
		L159.7,164.1z"/>
	<linearGradient id="SVGID_49_" gradientUnits="userSpaceOnUse" x1="186.5428" y1="146.211" x2="231.3553" y2="146.211">
		<stop  offset="0" style="stop-color:#24F5AE"/>
		<stop  offset="1" style="stop-color:#29CDFF"/>
	</linearGradient>
	<path display="inline" fill="url(#SVGID_49_)" d="M195.5,155.2h26.9v-17.9h-26.9V155.2L195.5,155.2z M226.9,164.1H191
		c-2.7,0-4.5-1.8-4.5-4.5v-26.9c0-2.7,1.8-4.5,4.5-4.5h35.9c2.7,0,4.5,1.8,4.5,4.5v26.9C231.4,162.3,229.6,164.1,226.9,164.1
		L226.9,164.1z"/>
	<linearGradient id="SVGID_50_" gradientUnits="userSpaceOnUse" x1="52.1044" y1="146.211" x2="96.9173" y2="146.211">
		<stop  offset="0" style="stop-color:#24F5AE"/>
		<stop  offset="1" style="stop-color:#29CDFF"/>
	</linearGradient>
	<path display="inline" fill="url(#SVGID_50_)" d="M61.1,155.2H88v-17.9H61.1V155.2L61.1,155.2z M92.4,164.1H56.6
		c-2.7,0-4.5-1.8-4.5-4.5v-26.9c0-2.7,1.8-4.5,4.5-4.5h35.8c2.7,0,4.5,1.8,4.5,4.5v26.9C96.9,162.3,95.1,164.1,92.4,164.1
		L92.4,164.1z"/>
	<linearGradient id="SVGID_51_" gradientUnits="userSpaceOnUse" x1="119.3235" y1="47.6232" x2="164.136" y2="47.6232">
		<stop  offset="0" style="stop-color:#24F5AE"/>
		<stop  offset="1" style="stop-color:#29CDFF"/>
	</linearGradient>
	<path display="inline" fill="url(#SVGID_51_)" d="M128.3,56.6h26.9V38.7h-26.9V56.6L128.3,56.6z M159.7,65.5h-35.9
		c-2.7,0-4.5-1.8-4.5-4.5V34.2c0-2.7,1.8-4.5,4.5-4.5h35.9c2.7,0,4.5,1.8,4.5,4.5v26.9C164.1,63.8,162.3,65.5,159.7,65.5L159.7,65.5
		z"/>
	<linearGradient id="SVGID_52_" gradientUnits="userSpaceOnUse" x1="186.5428" y1="47.6232" x2="231.3553" y2="47.6232">
		<stop  offset="0" style="stop-color:#24F5AE"/>
		<stop  offset="1" style="stop-color:#29CDFF"/>
	</linearGradient>
	<path display="inline" fill="url(#SVGID_52_)" d="M195.5,56.6h26.9V38.7h-26.9V56.6L195.5,56.6z M226.9,65.5H191
		c-2.7,0-4.5-1.8-4.5-4.5V34.2c0-2.7,1.8-4.5,4.5-4.5h35.9c2.7,0,4.5,1.8,4.5,4.5v26.9C231.4,63.8,229.6,65.5,226.9,65.5L226.9,65.5
		z"/>
	<linearGradient id="SVGID_53_" gradientUnits="userSpaceOnUse" x1="137.2487" y1="226.8742" x2="182.0612" y2="226.8742">
		<stop  offset="0" style="stop-color:#24F5AE"/>
		<stop  offset="1" style="stop-color:#29CDFF"/>
	</linearGradient>
	<path display="inline" fill="url(#SVGID_53_)" d="M146.2,249.3h26.9v-44.8h-26.9V249.3L146.2,249.3z M177.6,258.2h-35.9
		c-2.7,0-4.5-1.8-4.5-4.5V200c0-2.7,1.8-4.5,4.5-4.5h35.9c2.7,0,4.5,1.8,4.5,4.5v53.8C182.1,256.5,180.3,258.2,177.6,258.2
		L177.6,258.2z"/>
	<linearGradient id="SVGID_54_" gradientUnits="userSpaceOnUse" x1="101.3983" y1="226.8742" x2="146.2113" y2="226.8742">
		<stop  offset="0" style="stop-color:#24F5AE"/>
		<stop  offset="1" style="stop-color:#29CDFF"/>
	</linearGradient>
	<path display="inline" fill="url(#SVGID_54_)" d="M110.4,249.3h26.9v-44.8h-26.9V249.3L110.4,249.3z M141.7,258.2h-35.8
		c-2.7,0-4.5-1.8-4.5-4.5V200c0-2.7,1.8-4.5,4.5-4.5h35.8c2.7,0,4.5,1.8,4.5,4.5v53.8C146.2,256.5,144.4,258.2,141.7,258.2
		L141.7,258.2z"/>
	<linearGradient id="SVGID_55_" gradientUnits="userSpaceOnUse" x1="110.3609" y1="182.0614" x2="173.0986" y2="182.0614">
		<stop  offset="0" style="stop-color:#24F5AE"/>
		<stop  offset="1" style="stop-color:#29CDFF"/>
	</linearGradient>
	<path display="inline" fill="url(#SVGID_55_)" d="M168.6,186.5h-53.8c-2.7,0-4.5-1.8-4.5-4.5c0-2.7,1.8-4.5,4.5-4.5h53.8
		c2.7,0,4.5,1.8,4.5,4.5C173.1,184.7,171.3,186.5,168.6,186.5L168.6,186.5z"/>
</g>
<g display="none">
	<g display="inline">
		<g>
			<linearGradient id="SVGID_56_" gradientUnits="userSpaceOnUse" x1="16.1468" y1="96.5873" x2="267.3131" y2="96.5873">
				<stop  offset="0" style="stop-color:#24F5AE"/>
				<stop  offset="1" style="stop-color:#29CDFF"/>
			</linearGradient>
			<path fill="url(#SVGID_56_)" d="M267.3,135.7c0,15.1-6.2,29.1-17.4,39.5c-1.3,1.2-3,1.8-4.7,1.8c-2,0-3.8-0.8-5.1-2.2
				c-2.6-2.8-2.5-7.2,0.4-9.8c8.3-7.7,12.9-18.1,12.9-29.3c0-14.9-8.2-28.6-21.4-35.6c-2.3-1.2-3.7-3.6-3.7-6.2V81.6
				c0-28.4-23.1-51.5-51.5-51.5c-25.1,0-47,18.7-50.9,43.5c-0.4,2.7-2.4,4.9-4.9,5.6c-2.6,0.8-5.4-0.1-7.2-2.1
				c-5.3-6-12.8-9.4-20.8-9.4c-15.3,0-27.7,12.4-27.7,27.7v18.1c0,3.9-3.1,7-7.1,7c-15.5,0-28.1,12.4-28.1,27.7c0,0.9,0,1.8,0.1,2.7
				c0.4,3.8-2.5,7.2-6.3,7.6c-3.9,0.4-7.2-2.5-7.6-6.3c-0.1-1.3-0.2-2.7-0.2-4c0-19.3,13.8-36.4,32.8-40.6l2.4-0.5V95.5
				c0-23,18.7-41.7,41.7-41.7c6.5,0,13.1,1.6,18.9,4.6l3,1.5l1.3-3.1c3.9-9.5,10-18,17.8-24.8c11.9-10.3,27.1-15.9,42.8-15.9
				c36.1,0,65.4,29.4,65.4,65.4v8.3l1.4,0.9C258.4,100.9,267.3,117.7,267.3,135.7z"/>
			<linearGradient id="SVGID_57_" gradientUnits="userSpaceOnUse" x1="203.6089" y1="232.7024" x2="248.7105" y2="232.7024">
				<stop  offset="0" style="stop-color:#24F5AE"/>
				<stop  offset="1" style="stop-color:#29CDFF"/>
			</linearGradient>
			<path fill="url(#SVGID_57_)" d="M248.7,260.3c0,3.8-3.1,7-7,7h-31.2c-2.9,0-5.5-1.8-6.5-4.5c-1-2.7-0.3-5.8,1.8-7.7
				c0.3-0.3,7.3-6.6,14.3-14.3c11.8-13,13.6-18.8,13.9-20.2l0.1-0.3V220c-0.1-4.4-3.7-7.9-8-7.9h-0.5c-4.4,0-8.1,3.7-8.1,8.1
				c0,3.9-3.1,7-7,7c-3.9,0-7-3.1-7-7c0-12.2,9.9-22,21.9-22h0.5c12.1,0,22,9.9,22,22c0,4.4-1.6,12-15.8,28.1l-4.5,5.1h14
				C245.6,253.4,248.7,256.5,248.7,260.3z"/>
			<linearGradient id="SVGID_58_" gradientUnits="userSpaceOnUse" x1="116.1539" y1="217.125" x2="182.381" y2="217.125">
				<stop  offset="0" style="stop-color:#24F5AE"/>
				<stop  offset="1" style="stop-color:#29CDFF"/>
			</linearGradient>
			<path fill="url(#SVGID_58_)" d="M149.3,166.9c-18.3,0-33.1,14.8-33.1,33.1v34.2c0,18.3,14.8,33.1,33.1,33.1
				c18.3,0,33.1-14.9,33.1-33.1V200C182.4,181.8,167.5,166.9,149.3,166.9z M168.4,234.2c0,10.6-8.6,19.2-19.2,19.2
				c-10.6,0-19.2-8.6-19.2-19.2V200c0-10.6,8.6-19.2,19.2-19.2c10.6,0,19.2,8.6,19.2,19.2V234.2z"/>
			<linearGradient id="SVGID_59_" gradientUnits="userSpaceOnUse" x1="30.2168" y1="217.125" x2="95.9359" y2="217.125">
				<stop  offset="0" style="stop-color:#24F5AE"/>
				<stop  offset="1" style="stop-color:#29CDFF"/>
			</linearGradient>
			<path fill="url(#SVGID_59_)" d="M94.7,236.6c1,1.6,1.3,3.4,0.8,5.3c-3.5,15-16.8,25.5-32.2,25.5c-18.3,0-33.1-14.9-33.1-33.1V200
				c0-18.3,14.8-33.1,33.1-33.1c7.7,0,15.2,2.6,21.1,7.3c5.9,4.8,9.9,11.5,11.4,18.9c0.3,1.8,0,3.7-1,5.2c-1,1.6-2.6,2.6-4.5,3
				c-3.8,0.7-7.5-1.8-8.2-5.5c-1.7-8.8-9.5-15-18.8-15c-10.6,0-19.2,8.6-19.2,19.2v34.2c0,10.6,8.6,19.2,19.2,19.2
				c8.9,0,16.6-6.1,18.6-14.7c0.8-3.2,3.5-5.4,6.8-5.4c0.5,0,1.1,0.1,1.6,0.2C92.2,233.9,93.7,235,94.7,236.6z"/>
		</g>
	</g>
</g>
</svg>
