<?xml version="1.0" encoding="utf-8"?>
<!-- Generator: Adobe Illustrator 16.0.0, SVG Export Plug-In . SVG Version: 6.00 Build 0)  -->
<!DOCTYPE svg PUBLIC "-//W3C//DTD SVG 1.1//EN" "http://www.w3.org/Graphics/SVG/1.1/DTD/svg11.dtd">
<svg version="1.1" id="Capa_1" xmlns="http://www.w3.org/2000/svg" xmlns:xlink="http://www.w3.org/1999/xlink" x="0px" y="0px"
	 width="129px" height="149px" viewBox="343.445 416.14 129 149" enable-background="new 343.445 416.14 129 149"
	 xml:space="preserve">
<g display="none">
	
		<linearGradient id="SVGID_1_" gradientUnits="userSpaceOnUse" x1="186.1545" y1="56.1897" x2="230.5544" y2="56.1897" gradientTransform="matrix(1 0 0 -1 24.9536 586.6204)">
		<stop  offset="0" style="stop-color:#24F5AE"/>
		<stop  offset="1" style="stop-color:#29CDFF"/>
	</linearGradient>
	<rect x="211.102" y="528.283" display="inline" fill="url(#SVGID_1_)" width="44.398" height="4.3"/>
	
		<linearGradient id="SVGID_2_" gradientUnits="userSpaceOnUse" x1="239.5398" y1="51.6902" x2="243.889" y2="51.6902" gradientTransform="matrix(1 0 0 -1 24.9536 586.6204)">
		<stop  offset="0" style="stop-color:#24F5AE"/>
		<stop  offset="1" style="stop-color:#29CDFF"/>
	</linearGradient>
	<rect x="264.5" y="528.283" display="inline" fill="url(#SVGID_2_)" width="4.3" height="13.299"/>
	
		<linearGradient id="SVGID_3_" gradientUnits="userSpaceOnUse" x1="252.8679" y1="51.6902" x2="257.2176" y2="51.6902" gradientTransform="matrix(1 0 0 -1 24.9536 586.6204)">
		<stop  offset="0" style="stop-color:#24F5AE"/>
		<stop  offset="1" style="stop-color:#29CDFF"/>
	</linearGradient>
	<rect x="277.799" y="528.283" display="inline" fill="url(#SVGID_3_)" width="4.301" height="13.299"/>
	
		<linearGradient id="SVGID_4_" gradientUnits="userSpaceOnUse" x1="266.1936" y1="51.6902" x2="270.5424" y2="51.6902" gradientTransform="matrix(1 0 0 -1 24.9536 586.6204)">
		<stop  offset="0" style="stop-color:#24F5AE"/>
		<stop  offset="1" style="stop-color:#29CDFF"/>
	</linearGradient>
	<rect x="291.099" y="528.283" display="inline" fill="url(#SVGID_4_)" width="4.3" height="13.299"/>
	
		<linearGradient id="SVGID_5_" gradientUnits="userSpaceOnUse" x1="279.5178" y1="51.6902" x2="283.8666" y2="51.6902" gradientTransform="matrix(1 0 0 -1 24.9536 586.6204)">
		<stop  offset="0" style="stop-color:#24F5AE"/>
		<stop  offset="1" style="stop-color:#29CDFF"/>
	</linearGradient>
	<rect x="304.498" y="528.283" display="inline" fill="url(#SVGID_5_)" width="4.3" height="13.299"/>
	
		<linearGradient id="SVGID_6_" gradientUnits="userSpaceOnUse" x1="292.8464" y1="51.6902" x2="297.1953" y2="51.6902" gradientTransform="matrix(1 0 0 -1 24.9536 586.6204)">
		<stop  offset="0" style="stop-color:#24F5AE"/>
		<stop  offset="1" style="stop-color:#29CDFF"/>
	</linearGradient>
	<rect x="317.798" y="528.283" display="inline" fill="url(#SVGID_6_)" width="4.3" height="13.299"/>
	
		<linearGradient id="SVGID_7_" gradientUnits="userSpaceOnUse" x1="170.5544" y1="93.9402" x2="312.6545" y2="93.9402" gradientTransform="matrix(1 0 0 -1 24.9536 586.6204)">
		<stop  offset="0" style="stop-color:#24F5AE"/>
		<stop  offset="1" style="stop-color:#29CDFF"/>
	</linearGradient>
	<path display="inline" fill="url(#SVGID_7_)" d="M335.497,554.982v-65.798l-31.299,15.6l-4.399-78.698H277.9l-4.5,71.898
		l-13.699,6.899l-4.4-58.698h-21.799l-4.5,51.898l-31.199,15.6v41.299h-2.3v4.3h142.096v-4.3H335.497z M281.999,430.486h13.699
		l0.301,4.5h-14.2L281.999,430.486z M281.499,439.385h14.699l0.301,4.5h-15.3L281.499,439.385z M280.9,448.285h15.799l3.3,58.698
		l-8.899,4.5v-22.199l-13.1,6.5L280.9,448.285z M237.601,450.485h13.8l0.3,4.5h-14.5L237.601,450.485z M236.801,459.385H252l0.3,4.5
		h-15.899L236.801,459.385z M236.001,468.285h16.6l2.899,38.698l-8.899,4.4v-22.199l-13,6.499L236.001,468.285z M211.201,554.982
		h-8.999v-4.5h8.999V554.982z M251.2,554.982h-35.599v-15.6H251.2V554.982z M331.098,554.982H255.5v-4.5h75.598V554.982z
		 M331.098,546.082H255.5v-11.1h-44.299v11.1h-8.999v-29.799l40.099-19.999v22.199l44.398-22.199v22.199l44.398-22.199V546.082
		L331.098,546.082z"/>
</g>
<g>
	<g>
		<g display="none">
			<defs>
				<path id="SVGID_8_" d="M46.007-501.984C7.208-397.887-59.989-347.288-159.186-347.288c-58.498,0-109.396-46.999-123.195-92.397
					c48.298-45.998,108.296-73.197,126.596-80.797C-54.09-562.881,10.508-598.38,53.707-635.679
					c9.399-8.1,17.799-16.399,25.299-24.799C74.206-607.98,64.807-552.081,46.007-501.984L46.007-501.984z M-155.286-660.278
					c118.496,0,184.794-29.8,230.692-68.498c-8.6,22.299-24.199,42.599-47.698,62.998
					c-39.299,33.898-102.497,68.397-198.794,108.596c-29.299,12.2-85.097,39.199-133.596,83.697
					c-7.3-11.499-10.899-28.099-10.899-49.798C-315.68-617.48-232.584-660.278-155.286-660.278L-155.286-660.278z M83.506-794.373
					v1.1l-0.2-0.2c-47.898,55.898-106.796,93.097-238.592,93.097c-53.398,0-102.997,16.5-139.396,46.398
					c-39.299,32.3-60.898,78.598-60.898,130.396c0,33.898,7.601,60.298,22.6,78.997c-12.699,14.999-23.299,30.599-31.699,46.498
					c-15.799,30.1-23.799,61.998-23.799,94.598v19.999h39.898v-19.999c0-39.699,14.899-74.098,36.599-103.097
					c9.9,20.299,24.699,39.698,43.099,55.897c31.699,27.899,70.698,43.299,109.696,43.299c62.398,0,115.597-17.999,158.095-53.599
					c35.799-29.999,64.298-72.697,84.598-127.096c35.799-95.896,39.999-209.393,39.999-286.39v-20H83.506V-794.373z"/>
			</defs>
			<clipPath id="SVGID_9_" display="inline">
				<use xlink:href="#SVGID_8_"  overflow="visible"/>
			</clipPath>
			<g display="inline" clip-path="url(#SVGID_9_)">
				<g>
					<defs>
						<rect id="SVGID_10_" x="-388.579" y="-794.373" width="511.983" height="510.982"/>
					</defs>
					<clipPath id="SVGID_11_">
						<use xlink:href="#SVGID_10_"  overflow="visible"/>
					</clipPath>
					<g clip-path="url(#SVGID_11_)">
						
							<image overflow="visible" enable-background="new    " width="1073" height="1069" xlink:href="44B20B2F35CB74BC.jpeg"  transform="matrix(0.4795 0 0 -0.4791 -389.3494 -282.8059)">
						</image>
					</g>
				</g>
			</g>
		</g>
		
			<rect x="31.407" y="37.199" display="none" fill="none" stroke="#FFFFFF" stroke-width="3" stroke-miterlimit="10" width="126.896" height="144.396"/>
		<g display="none">
			<g display="inline">
				
					<linearGradient id="SVGID_12_" gradientUnits="userSpaceOnUse" x1="7.9543" y1="434.8904" x2="131.7546" y2="434.8904" gradientTransform="matrix(1 0 0 -1 24.9536 586.6204)">
					<stop  offset="0" style="stop-color:#24F5AE"/>
					<stop  offset="1" style="stop-color:#29CDFF"/>
				</linearGradient>
				<path fill="url(#SVGID_12_)" d="M128.704,123.496H61.007c-15.5,0-28.1,12.699-28.1,28.399v25.398c0,1.5,1.2,2.7,2.7,2.7h118.396
					c1.5,0,2.7-1.2,2.7-2.7v-25.398C156.804,136.296,144.204,123.496,128.704,123.496z M108.906,128.996l-0.7,2
					c-2,5.699-7.4,9.5-13.399,9.5c-6,0-11.4-3.801-13.399-9.5l-0.7-2H108.906z M151.304,174.594h-15.699v-14.2
					c0-1.5-1.2-2.699-2.7-2.699s-2.7,1.199-2.7,2.699v14.2H59.507v-14.2c0-1.5-1.2-2.699-2.7-2.699s-2.7,1.199-2.7,2.699v14.2
					H38.407v-22.699c0-12.6,10.199-22.899,22.699-22.899h14.3l0.3,1.2c1.899,9.1,10,15.699,19.299,15.699
					c9.3,0,17.399-6.6,19.3-15.699l0.2-1.2h14.3c12.499,0,22.599,10.3,22.599,22.899v22.699H151.304z"/>
			</g>
			<g display="inline">
				
					<linearGradient id="SVGID_13_" gradientUnits="userSpaceOnUse" x1="41.7542" y1="506.99" x2="97.9751" y2="506.99" gradientTransform="matrix(1 0 0 -1 24.9536 586.6204)">
					<stop  offset="0" style="stop-color:#24F5AE"/>
					<stop  offset="1" style="stop-color:#29CDFF"/>
				</linearGradient>
				<path fill="url(#SVGID_13_)" d="M103.305,38.699H86.406c-10.799,0-19.699,8.8-19.699,19.699v34.099c0,15.5,12.6,28.1,28.1,28.1
					c15.499,0,28.199-12.7,28.199-28.199V58.299C123.005,47.499,114.205,38.699,103.305,38.699z M117.505,92.397
					c0,12.499-10.2,22.699-22.699,22.699c-12.5,0-22.6-10.2-22.6-22.699V78.998l2.4,1.699c5.3,3.9,12.499,6,20.299,6
					c7.7,0,14.899-2.1,20.3-6l2.399-1.699v13.399H117.505z M72.306,69.798h45.099l-1.399,2.3c-3.4,5.5-11.899,9.2-21.199,9.2
					s-17.8-3.7-21.1-9.2L72.306,69.798z M117.505,64.298H72.206v-5.999c0-7.8,6.399-14.2,14.199-14.2h16.899
					c7.8,0,14.2,6.4,14.2,14.2V64.298L117.505,64.298z"/>
			</g>
		</g>
		<g>
			<g>
				<g>
					<defs>
						<rect id="SVGID_14_" x="355.697" y="428.986" width="108.896" height="127.796"/>
					</defs>
					<clipPath id="SVGID_15_">
						<use xlink:href="#SVGID_14_"  overflow="visible"/>
					</clipPath>
					
						<linearGradient id="SVGID_16_" gradientUnits="userSpaceOnUse" x1="330.7258" y1="93.7273" x2="439.6409" y2="93.7273" gradientTransform="matrix(1 0 0 -1 24.9536 586.6204)">
						<stop  offset="0" style="stop-color:#24F5AE"/>
						<stop  offset="1" style="stop-color:#29CDFF"/>
					</linearGradient>
					<path clip-path="url(#SVGID_15_)" fill="url(#SVGID_16_)" d="M464.493,463.685L464.493,463.685
						c-0.101-1.301-0.101-2.601-0.101-4.101c-0.1-6.999-5.699-12.899-12.799-13.299c-14.7-0.801-26.1-5.601-35.799-15.1
						l-0.101-0.101c-3.2-2.899-7.899-2.899-11.1,0l-0.1,0.101c-9.7,9.499-21.1,14.299-35.799,15.1
						c-7,0.399-12.699,6.199-12.8,13.299c0,1.4-0.1,2.7-0.1,4v0.2c-0.3,14.999-0.601,33.599,5.6,50.599
						c3.4,9.3,8.6,17.399,15.399,24.099c7.8,7.6,17.899,13.6,30.199,17.899c0.399,0.101,0.8,0.3,1.199,0.3
						c0.601,0.101,1.2,0.2,1.801,0.2c0.6,0,1.199-0.1,1.8-0.2c0.399-0.1,0.8-0.199,1.199-0.3c12.3-4.3,22.399-10.3,30.199-17.899
						c6.8-6.699,12-14.799,15.399-24.099C465.093,497.384,464.694,478.684,464.493,463.685L464.493,463.685z M451.793,511.683
						c-6.6,17.799-19.999,30.099-41.099,37.499c-0.1,0-0.2,0-0.2,0.1c-0.199,0-0.399,0-0.699,0c-0.101,0-0.2,0-0.2-0.1
						c-21.1-7.4-34.499-19.6-41.099-37.399c-5.8-15.6-5.399-32.698-5.1-47.798v-0.101c0.1-1.3,0.1-2.699,0.1-4.199
						c0-3.101,2.5-5.7,5.7-5.9c8.3-0.5,15.6-2.1,22.299-4.899c6.7-2.8,12.7-6.8,18.199-12.2c0.3-0.199,0.601-0.199,0.9,0
						c5.5,5.4,11.499,9.4,18.199,12.2s14,4.399,22.3,4.899c3.1,0.2,5.6,2.8,5.699,5.9c0,1.5,0.101,2.899,0.101,4.199
						C457.194,478.984,457.593,496.084,451.793,511.683L451.793,511.683z"/>
				</g>
			</g>
			
				<linearGradient id="SVGID_17_" gradientUnits="userSpaceOnUse" x1="353.342" y1="93.7395" x2="417.0609" y2="93.7395" gradientTransform="matrix(1 0 0 -1 24.9536 586.6204)">
				<stop  offset="0" style="stop-color:#24F5AE"/>
				<stop  offset="1" style="stop-color:#29CDFF"/>
			</linearGradient>
			<path fill="url(#SVGID_17_)" d="M410.095,460.985c-17.6,0-31.898,14.3-31.898,31.898c0,17.6,14.299,31.899,31.898,31.899
				s31.898-14.3,31.898-31.899C441.993,475.285,427.695,460.985,410.095,460.985L410.095,460.985z M410.095,517.183
				c-13.399,0-24.399-10.899-24.399-24.399c0-13.399,10.899-24.399,24.399-24.399c13.399,0,24.399,10.899,24.399,24.399
				C434.494,506.283,423.594,517.183,410.095,517.183L410.095,517.183z"/>
			
				<linearGradient id="SVGID_18_" gradientUnits="userSpaceOnUse" x1="369.1292" y1="92.2527" x2="400.7493" y2="92.2527" gradientTransform="matrix(1 0 0 -1 24.9536 586.6204)">
				<stop  offset="0" style="stop-color:#24F5AE"/>
				<stop  offset="1" style="stop-color:#29CDFF"/>
			</linearGradient>
			<path fill="url(#SVGID_18_)" d="M419.294,482.984l-14.799,14.8l-4-4c-1.5-1.5-3.8-1.5-5.3,0s-1.5,3.8,0,5.3l6.699,6.7
				c0.7,0.699,1.7,1.1,2.7,1.1s1.9-0.4,2.7-1.1l17.499-17.5c1.5-1.5,1.5-3.8,0-5.3C423.095,481.484,420.794,481.484,419.294,482.984
				L419.294,482.984z"/>
		</g>
		<g display="none">
			<g display="inline">
				<g>
					<defs>
						<rect id="SVGID_19_" x="469.593" y="254.292" width="100.797" height="121.496"/>
					</defs>
					<clipPath id="SVGID_20_">
						<use xlink:href="#SVGID_19_"  overflow="visible"/>
					</clipPath>
					
						<linearGradient id="SVGID_21_" gradientUnits="userSpaceOnUse" x1="444.6545" y1="271.6897" x2="545.4637" y2="271.6897" gradientTransform="matrix(1 0 0 -1 24.9536 586.6204)">
						<stop  offset="0" style="stop-color:#24F5AE"/>
						<stop  offset="1" style="stop-color:#29CDFF"/>
					</linearGradient>
					<path clip-path="url(#SVGID_20_)" fill="url(#SVGID_21_)" d="M561.69,254.292h-66.998c-4.799,0-8.6,3.899-8.6,8.6v5.5h-7.899
						c-4.8,0-8.6,3.899-8.6,8.6v89.997c0,4.8,3.899,8.6,8.6,8.6h66.998c4.8,0,8.6-3.899,8.6-8.6v-5.5h7.899c4.8,0,8.6-3.899,8.6-8.6
						v-89.897C570.39,258.191,566.49,254.292,561.69,254.292L561.69,254.292z M546.891,366.988c0,1-0.801,1.7-1.7,1.7h-66.998
						c-1,0-1.7-0.8-1.7-1.7v-89.797c0-1,0.8-1.7,1.7-1.7h7.899v77.397c0,4.8,3.9,8.6,8.6,8.6h52.199V366.988z M563.49,352.789
						c0,1-0.8,1.699-1.699,1.699h-66.998c-1,0-1.7-0.8-1.7-1.699v-89.798c0-1,0.8-1.699,1.7-1.699h66.998
						c0.999,0,1.699,0.8,1.699,1.699V352.789z"/>
				</g>
			</g>
			
				<linearGradient id="SVGID_22_" gradientUnits="userSpaceOnUse" x1="474.4543" y1="307.3396" x2="532.1545" y2="307.3396" gradientTransform="matrix(1 0 0 -1 24.9536 586.6204)">
				<stop  offset="0" style="stop-color:#24F5AE"/>
				<stop  offset="1" style="stop-color:#29CDFF"/>
			</linearGradient>
			<path display="inline" fill="url(#SVGID_22_)" d="M553.59,275.791h-50.698c-1.9,0-3.5,1.6-3.5,3.5s1.5,3.5,3.5,3.5h50.698
				c1.9,0,3.5-1.5,3.5-3.5C557.09,277.39,555.49,275.791,553.59,275.791L553.59,275.791z"/>
			
				<linearGradient id="SVGID_23_" gradientUnits="userSpaceOnUse" x1="474.4543" y1="290.8401" x2="532.1545" y2="290.8401" gradientTransform="matrix(1 0 0 -1 24.9536 586.6204)">
				<stop  offset="0" style="stop-color:#24F5AE"/>
				<stop  offset="1" style="stop-color:#29CDFF"/>
			</linearGradient>
			<path display="inline" fill="url(#SVGID_23_)" d="M553.59,292.291h-50.698c-1.9,0-3.5,1.499-3.5,3.499c0,1.9,1.5,3.5,3.5,3.5
				h50.698c1.9,0,3.5-1.5,3.5-3.5S555.49,292.291,553.59,292.291L553.59,292.291z"/>
			
				<linearGradient id="SVGID_24_" gradientUnits="userSpaceOnUse" x1="474.4543" y1="274.3401" x2="532.1545" y2="274.3401" gradientTransform="matrix(1 0 0 -1 24.9536 586.6204)">
				<stop  offset="0" style="stop-color:#24F5AE"/>
				<stop  offset="1" style="stop-color:#29CDFF"/>
			</linearGradient>
			<path display="inline" fill="url(#SVGID_24_)" d="M553.59,308.79h-50.698c-1.9,0-3.5,1.601-3.5,3.5c0,1.9,1.5,3.5,3.5,3.5h50.698
				c1.9,0,3.5-1.5,3.5-3.5S555.49,308.79,553.59,308.79L553.59,308.79z"/>
			
				<linearGradient id="SVGID_25_" gradientUnits="userSpaceOnUse" x1="474.4543" y1="257.9402" x2="532.1545" y2="257.9402" gradientTransform="matrix(1 0 0 -1 24.9536 586.6204)">
				<stop  offset="0" style="stop-color:#24F5AE"/>
				<stop  offset="1" style="stop-color:#29CDFF"/>
			</linearGradient>
			<path display="inline" fill="url(#SVGID_25_)" d="M553.59,325.189h-50.698c-1.9,0-3.5,1.601-3.5,3.5c0,1.9,1.5,3.5,3.5,3.5
				h50.698c1.9,0,3.5-1.5,3.5-3.5C557.09,326.79,555.49,325.189,553.59,325.189L553.59,325.189z"/>
		</g>
		<g>
			<g>
				<defs>
					<rect id="SVGID_26_" x="191.702" y="36.399" width="150.095" height="145.995"/>
				</defs>
				<clipPath id="SVGID_27_">
					<use xlink:href="#SVGID_26_"  overflow="visible"/>
				</clipPath>
				<g display="none" clip-path="url(#SVGID_27_)">
					<g display="inline">
						<g>
							<defs>
								<rect id="SVGID_28_" x="191.702" y="36.399" width="150.095" height="145.995"/>
							</defs>
							<defs>
								<rect id="SVGID_29_" x="191.702" y="36.399" width="150.095" height="145.995"/>
							</defs>
							<clipPath id="SVGID_30_">
								<use xlink:href="#SVGID_28_"  overflow="visible"/>
							</clipPath>
							<clipPath id="SVGID_31_" clip-path="url(#SVGID_30_)">
								<use xlink:href="#SVGID_29_"  overflow="visible"/>
							</clipPath>
							
								<linearGradient id="SVGID_32_" gradientUnits="userSpaceOnUse" x1="221.7542" y1="427.1404" x2="244.6671" y2="427.1404" gradientTransform="matrix(1 0 0 -1 24.9536 586.6204)">
								<stop  offset="0" style="stop-color:#24F5AE"/>
								<stop  offset="1" style="stop-color:#29CDFF"/>
							</linearGradient>
							<path clip-path="url(#SVGID_31_)" fill="url(#SVGID_32_)" d="M258.2,147.995c-6.3,0-11.5,5.1-11.5,11.5
								c0,6.3,5.1,11.499,11.5,11.499c6.3,0,11.499-5.1,11.499-11.499C269.6,153.195,264.5,148.095,258.2,147.995L258.2,147.995z
								 M258.2,164.594c-2.8,0-5.1-2.3-5.1-5.1s2.3-5.1,5.1-5.1s5.1,2.3,5.1,5.1C263.2,162.295,260.9,164.594,258.2,164.594
								L258.2,164.594z"/>
							
								<linearGradient id="SVGID_33_" gradientUnits="userSpaceOnUse" x1="166.6765" y1="477.4958" x2="316.8406" y2="477.4958" gradientTransform="matrix(1 0 0 -1 24.9536 586.6204)">
								<stop  offset="0" style="stop-color:#24F5AE"/>
								<stop  offset="1" style="stop-color:#29CDFF"/>
							</linearGradient>
							<path clip-path="url(#SVGID_31_)" fill="url(#SVGID_33_)" d="M337.598,129.895l-59.198,19.5c-4.5-9-14.3-13.899-24.199-12.2
								l-28.399-86.297c-1.8-5.399-6.399-9.5-11.999-10.699l-18.3-3.8c-1.7-0.4-3.399,0.8-3.8,2.5c-0.4,1.699,0.8,3.399,2.5,3.8
								l18.299,3.699c3.4,0.7,6.101,3.101,7.2,6.4l28.399,86.197c-10,4.899-15,16.499-11.6,27.099
								c3.399,10.699,13.999,17.3,25.099,15.6s19.199-11.199,19.199-22.399c0-1.399-0.1-2.7-0.399-4.1l59.198-19.5
								c1.699-0.6,2.6-2.399,2-3.999c-0.301-0.801-0.801-1.5-1.601-1.801C339.297,129.696,338.398,129.595,337.598,129.895
								L337.598,129.895z M258.2,175.795c-9,0-16.3-7.3-16.3-16.3s7.3-16.3,16.3-16.3c8.999,0,16.299,7.3,16.299,16.3
								C274.4,168.495,267.1,175.694,258.2,175.795L258.2,175.795z"/>
						</g>
						
							<linearGradient id="SVGID_34_" gradientUnits="userSpaceOnUse" x1="222.4021" y1="492.7664" x2="312.114" y2="492.7664" gradientTransform="matrix(1 0 0 -1 24.9536 586.6204)">
							<stop  offset="0" style="stop-color:#24F5AE"/>
							<stop  offset="1" style="stop-color:#29CDFF"/>
						</linearGradient>
						<path fill="url(#SVGID_34_)" d="M251.101,90.597c0,0.199,0.1,0.399,0.1,0.5c0.1,0.199,0.1,0.3,0.2,0.5l12.8,38.898
							c0.899,2.7,2.8,4.899,5.3,6.199c1.5,0.801,3.199,1.2,4.8,1.2c1.1,0,2.3-0.2,3.399-0.5l51.998-17.1
							c5.601-1.899,8.7-7.899,6.8-13.499l-16.299-49.599c-0.9-2.7-2.8-4.899-5.3-6.199c-2.5-1.301-5.5-1.5-8.2-0.601l-51.998,17.1
							c-2.7,0.9-4.9,2.8-6.2,5.3s-1.5,5.5-0.6,8.2L251.101,90.597z M327.698,114.196l-51.998,17.1c-2.3,0.7-4.699-0.5-5.399-2.8
							l-12-36.398l60.198-19.8l12,36.398C331.198,110.997,329.998,113.396,327.698,114.196L327.698,114.196z M256.7,73.498
							l51.998-17.1c0.4-0.2,0.9-0.2,1.3-0.2c0.7,0,1.3,0.2,2,0.5c1,0.5,1.8,1.4,2.1,2.5l2.301,7.1l-60.198,19.8l-2.2-7.1
							c-0.4-1.101-0.3-2.301,0.2-3.3C254.7,74.597,255.6,73.897,256.7,73.498L256.7,73.498z"/>
					</g>
				</g>
				<g display="none" clip-path="url(#SVGID_27_)">
					
						<linearGradient id="SVGID_35_" gradientUnits="userSpaceOnUse" x1="6.4641" y1="292.5403" x2="79.1672" y2="292.5403" gradientTransform="matrix(1 0 0 -1 24.9536 586.6204)">
						<stop  offset="0" style="stop-color:#24F5AE"/>
						<stop  offset="1" style="stop-color:#29CDFF"/>
					</linearGradient>
					<path display="inline" fill="url(#SVGID_35_)" d="M92.606,314.79c3.7,0,6.7,3,6.7,6.7c0,3.699-3,6.699-6.7,6.699h-6.5v4.9h5.2
						c4.399,0,7.8,3.399,7.8,7.8v20.799c0,4.399-3.4,8.1-7.8,8.1h-9.2c0.801-2,1.2-3.6,1.2-5.5h-4.899c0,4.4-3.601,8.1-8,8.1h-5.2
						c-4.399,0-7.999-3.699-7.999-8.1h-4.9c0,1.9,0.4,3.601,1.2,5.5h-9.2c-4.399,0-8.1-3.7-8.1-8.1v-20.799c0-4.4,3.7-7.8,8.1-7.8
						h26v-4.9H43.108c-3.7,0-6.7-3-6.7-6.699c0-3.7,3-6.7,6.7-6.7h27.299v-4.899H43.108c-3.7,0-6.7-3-6.7-6.7s3-6.7,6.7-6.7h27.299
						v-4.899H44.407c-4.4,0-8.1-3.7-8.1-8.1v-20.8h62.798v20.8c0,4.399-3.4,8.1-7.8,8.1h-5.2v4.899h6.5c3.7,0,6.7,3,6.7,6.7
						s-3,6.7-6.7,6.7h-6.5v4.899H92.606L92.606,314.79z M61.206,228.892h13.2l22.299,28.999H39.007L61.206,228.892L61.206,228.892z
						 M54.507,223.993v-8.1h26.399v8.1H54.507L54.507,223.993z M104.106,321.29c0-3.7-1.7-7-4.4-9.1c2.7-2.101,4.5-5.4,4.5-9.101
						c0-3.899-2-7.3-5-9.399c3-2.399,4.8-6,4.8-10.1v-24.299l-23.299-30.399h5.1v-17.899H49.607v17.899h5.5l-23.699,30.399v24.299
						c0,4.1,2,7.7,5,10.1c-3,2.1-4.899,5.5-4.899,9.399c0,3.7,1.8,7,4.499,9.101c-2.699,2.1-4.499,5.399-4.499,9.1
						c0,3.899,1.899,7.3,4.8,9.399c-3,2.4-5,6-5,10.1v20.8c0,7.1,5.899,12.999,12.999,12.999h13v-0.2c2.2,1.7,4.899,2.8,7.8,2.8h5.2
						c2.899,0,5.6-1.199,7.799-2.8v0.2h13c7.1,0,12.699-5.899,12.699-12.999v-20.8c0-4.1-1.8-7.699-4.8-10.1
						C102.106,328.59,104.106,325.189,104.106,321.29L104.106,321.29z"/>
					
						<linearGradient id="SVGID_36_" gradientUnits="userSpaceOnUse" x1="24.6843" y1="336.7898" x2="29.8845" y2="336.7898" gradientTransform="matrix(1 0 0 -1 24.9536 586.6204)">
						<stop  offset="0" style="stop-color:#24F5AE"/>
						<stop  offset="1" style="stop-color:#29CDFF"/>
					</linearGradient>
					<polygon display="inline" fill="url(#SVGID_36_)" points="49.607,247.391 54.807,247.391 54.807,252.292 49.607,252.292 					
						"/>
					
						<linearGradient id="SVGID_37_" gradientUnits="userSpaceOnUse" x1="29.8889" y1="341.99" x2="35.0948" y2="341.99" gradientTransform="matrix(1 0 0 -1 24.9536 586.6204)">
						<stop  offset="0" style="stop-color:#24F5AE"/>
						<stop  offset="1" style="stop-color:#29CDFF"/>
					</linearGradient>
					<polygon display="inline" fill="url(#SVGID_37_)" points="54.807,242.192 60.007,242.192 60.007,247.092 54.807,247.092 					
						"/>
					
						<linearGradient id="SVGID_38_" gradientUnits="userSpaceOnUse" x1="50.7122" y1="274.2898" x2="55.9124" y2="274.2898" gradientTransform="matrix(1 0 0 -1 24.9536 586.6204)">
						<stop  offset="0" style="stop-color:#24F5AE"/>
						<stop  offset="1" style="stop-color:#29CDFF"/>
					</linearGradient>
					<polygon display="inline" fill="url(#SVGID_38_)" points="75.706,309.89 80.906,309.89 80.906,314.79 75.706,314.79 					"/>
					
						<linearGradient id="SVGID_39_" gradientUnits="userSpaceOnUse" x1="50.7122" y1="292.49" x2="55.9124" y2="292.49" gradientTransform="matrix(1 0 0 -1 24.9536 586.6204)">
						<stop  offset="0" style="stop-color:#24F5AE"/>
						<stop  offset="1" style="stop-color:#29CDFF"/>
					</linearGradient>
					<polygon display="inline" fill="url(#SVGID_39_)" points="75.706,291.69 80.906,291.69 80.906,296.591 75.706,296.591 					"/>
					
						<linearGradient id="SVGID_40_" gradientUnits="userSpaceOnUse" x1="50.7122" y1="256.0901" x2="55.9124" y2="256.0901" gradientTransform="matrix(1 0 0 -1 24.9536 586.6204)">
						<stop  offset="0" style="stop-color:#24F5AE"/>
						<stop  offset="1" style="stop-color:#29CDFF"/>
					</linearGradient>
					<polygon display="inline" fill="url(#SVGID_40_)" points="75.706,328.09 80.906,328.09 80.906,332.989 75.706,332.989 					"/>
				</g>
				<g display="none" clip-path="url(#SVGID_27_)">
					
						<linearGradient id="SVGID_41_" gradientUnits="userSpaceOnUse" x1="151.6091" y1="293.24" x2="204.5122" y2="293.24" gradientTransform="matrix(1 0 0 -1 24.9536 586.6204)">
						<stop  offset="0" style="stop-color:#24F5AE"/>
						<stop  offset="1" style="stop-color:#29CDFF"/>
					</linearGradient>
					<path display="inline" fill="url(#SVGID_41_)" d="M176.603,375.488h49.998c1.601,0,2.9-1.3,2.9-2.9V269.891
						c0-9.2-6-17.1-14.699-19.699l0,0v-23.6c1.8-1.7,2.899-4,2.899-6.5c0-4.8-3.899-8.8-8.8-8.8h-11.699c-4.8,0-8.8,3.9-8.8,8.8
						c0,2.601,1.1,4.9,2.899,6.5v23.6c-8.6,2.6-14.699,10.499-14.699,19.699v11.699c0,1.6,1.3,2.9,2.9,2.9
						c1.6,0,2.899-1.301,2.899-2.9v-11.699c0-7.1,5.3-13.3,12.199-14.5c0.2,0,0.5-0.1,0.7-0.2h15.2c0.199,0.101,0.399,0.2,0.699,0.2
						c7,1.2,12.2,7.4,12.2,14.5v11.699h-20.5c-1.6,0-2.899,1.3-2.899,2.9v55.698c0,1.6,1.3,2.899,2.899,2.899h20.5v26.399h-40.999
						V293.29h-6 M200.102,228.892c1.601,0,2.9-1.3,2.9-2.899c0-1.601-1.3-2.9-2.9-2.9h-2.899c-1.601,0-2.9-1.3-2.9-2.899
						c0-1.601,1.3-2.9,2.9-2.9h11.699c1.601,0,2.9,1.3,2.9,2.9c0,1-0.601,2-1.5,2.5c-1.101,0.6-1.601,1.8-1.4,2.899
						c0,0.1,0,0.3,0,0.4v23.499h-11.699v-20.499h2.899V228.892z M176.703,337.489v32.099 M206.002,337.389v-49.799h17.6v49.799
						H206.002z"/>
				</g>
				<g display="none" clip-path="url(#SVGID_27_)">
					
						<linearGradient id="SVGID_42_" gradientUnits="userSpaceOnUse" x1="235.6541" y1="266.8396" x2="425.9543" y2="266.8396" gradientTransform="matrix(1 0 0 -1 24.9536 586.6204)">
						<stop  offset="0" style="stop-color:#24F5AE"/>
						<stop  offset="1" style="stop-color:#29CDFF"/>
					</linearGradient>
					<path display="inline" fill="url(#SVGID_42_)" d="M374.996,337.689c0,7,2.3,13.699,6.399,19.1h-51.998
						c4.1-5.5,6.399-12.2,6.399-19.1c0-6.8-2.199-13.3-6.1-18.699h51.299C377.197,324.389,374.996,330.889,374.996,337.689
						L374.996,337.689z M287.499,310.69c-7-2.9-12.8-8-16.6-14.5h69.098v17.1h-15.499c-5.7-4.8-12.899-7.399-20.3-7.399
						C298.198,305.99,292.499,307.59,287.499,310.69L287.499,310.69z M345.597,269.391h99.597
						c-1.5,24.499-21.899,43.998-46.698,43.998h-11.1h-41.799V269.391L345.597,269.391z M388.596,318.99h9.899
						c28.899,0,52.398-23.5,52.398-52.398c0-1.601-1.3-2.8-2.8-2.8H342.797c-1.6,0-2.8,1.3-2.8,2.8v9.399h-44.998
						c-1.601,0-2.8,1.3-2.8,2.8c0,1.6,1.3,2.8,2.8,2.8h44.998v9H268.3c-1.101-2.9-1.7-5.9-2-9h19.299c1.601,0,2.8-1.3,2.8-2.8
						c0-1.6-1.3-2.8-2.8-2.8H263.4c-1.6,0-2.8,1.3-2.8,2.8c0,5.5,1.101,10.8,3.2,15.699l0,0c4.3,10.2,12.8,18.2,23.199,22
						c0.9,0.3,1.8,0.2,2.6-0.3c4.3-3,9.4-4.601,14.7-4.601c6.399,0,12.6,2.4,17.399,6.6c0,0,0,0,0.1,0.101
						c5.5,4.899,8.6,11.999,8.6,19.399c0,7.3-3.1,14.199-8.399,19.1h-12.7c-1.6,0-2.8,1.3-2.8,2.8v13.399c0,1.6,1.3,2.8,2.8,2.8
						h70.298c1.601,0,2.8-1.3,2.8-2.8c0-1.6-1.3-2.8-2.8-2.8h-67.397v-7.8h87.297v7.8h-10.399c-1.6,0-2.8,1.3-2.8,2.8
						c0,1.6,1.3,2.8,2.8,2.8h13.199c1.6,0,2.8-1.3,2.8-2.8v-13.399c0-1.601-1.3-2.8-2.8-2.8h-13.299c-5.301-4.9-8.4-11.8-8.4-19.1
						C380.596,330.689,383.496,323.889,388.596,318.99L388.596,318.99z"/>
				</g>
				<g display="none" clip-path="url(#SVGID_27_)">
					<g display="inline">
						<g>
							<defs>
								<rect id="SVGID_43_" x="697.585" y="196.794" width="108.896" height="150.095"/>
							</defs>
							<clipPath id="SVGID_44_">
								<use xlink:href="#SVGID_43_"  overflow="visible"/>
							</clipPath>
							
								<linearGradient id="SVGID_45_" gradientUnits="userSpaceOnUse" x1="672.7629" y1="314.6404" x2="781.5442" y2="314.6404" gradientTransform="matrix(1 0 0 -1 24.9536 586.6204)">
								<stop  offset="0" style="stop-color:#24F5AE"/>
								<stop  offset="1" style="stop-color:#29CDFF"/>
							</linearGradient>
							<path clip-path="url(#SVGID_44_)" fill="url(#SVGID_45_)" d="M799.482,323.389c-0.1,0.2-0.6,0.8-1.5,0.8h-91.896
								c-0.9,0-1.3-0.6-1.5-0.8c-0.101-0.2-0.4-0.899,0-1.7l6.899-12.999h81.098l6.899,12.999
								C799.882,322.49,799.582,323.189,799.482,323.389L799.482,323.389z M752.083,340.189c-5.3,0-9.6-4-10.1-9.2h20.199
								C761.683,336.09,757.283,340.189,752.083,340.189L752.083,340.189z M712.685,270.891c0-21.699,17.6-39.299,39.299-39.299
								s39.299,17.6,39.299,39.299v31.099h-78.697v-31.099H712.685z M745.984,209.594c0-3.301,2.7-6,6-6s6,2.699,6,6v15.499
								c-2-0.3-4-0.4-6-0.4s-4.1,0.101-6,0.4V209.594L745.984,209.594z M805.482,318.59l-7.3-13.699v-33.899
								c0-20.999-14.1-38.698-33.299-44.299v-16.899c0-7.1-5.699-12.799-12.8-12.799c-7.1,0-12.799,5.699-12.799,12.799v16.899
								c-19.2,5.601-33.299,23.3-33.299,44.299v33.899l-7.3,13.699c-1.4,2.6-1.301,5.8,0.199,8.3c1.5,2.6,4.301,4.1,7.3,4.1h29.1
								c0.5,8.9,7.899,16,16.899,16s16.399-7.1,16.899-16h28.898c3,0,5.7-1.5,7.3-4.1
								C806.781,324.29,806.882,321.189,805.482,318.59L805.482,318.59z"/>
						</g>
					</g>
					
						<linearGradient id="SVGID_46_" gradientUnits="userSpaceOnUse" x1="696.8147" y1="329.2908" x2="730.5149" y2="329.2908" gradientTransform="matrix(1 0 0 -1 24.9536 586.6204)">
						<stop  offset="0" style="stop-color:#24F5AE"/>
						<stop  offset="1" style="stop-color:#29CDFF"/>
					</linearGradient>
					<path display="inline" fill="url(#SVGID_46_)" d="M752.083,240.492c-16.699,0-30.299,13.6-30.299,30.299c0,1.9,1.5,3.4,3.4,3.4
						c1.899,0,3.399-1.5,3.399-3.4c0-12.999,10.6-23.499,23.499-23.499c1.9,0,3.4-1.5,3.4-3.399
						C755.484,242.092,753.883,240.492,752.083,240.492L752.083,240.492z"/>
				</g>
				<g display="none" clip-path="url(#SVGID_27_)">
					
						<linearGradient id="SVGID_47_" gradientUnits="userSpaceOnUse" x1="25.1541" y1="98.0901" x2="137.9543" y2="98.0901" gradientTransform="matrix(1 0 0 -1 24.9536 586.6204)">
						<stop  offset="0" style="stop-color:#24F5AE"/>
						<stop  offset="1" style="stop-color:#29CDFF"/>
					</linearGradient>
					<path display="inline" fill="url(#SVGID_47_)" d="M54.406,544.883h104.097V432.186H54.406V544.883L54.406,544.883z
						 M160.703,549.282H52.307c-1.3,0-2.2-0.9-2.2-2.2V429.986c0-1.3,0.9-2.2,2.2-2.2h108.396c1.3,0,2.2,0.9,2.2,2.2v117.096
						C162.904,548.383,162.003,549.282,160.703,549.282L160.703,549.282z"/>
					
						<linearGradient id="SVGID_48_" gradientUnits="userSpaceOnUse" x1="16.4543" y1="35.2903" x2="146.6541" y2="35.2903" gradientTransform="matrix(1 0 0 -1 24.9536 586.6204)">
						<stop  offset="0" style="stop-color:#24F5AE"/>
						<stop  offset="1" style="stop-color:#29CDFF"/>
					</linearGradient>
					<path display="inline" fill="url(#SVGID_48_)" d="M45.807,553.582h121.396v-4.3H45.807V553.582L45.807,553.582z
						 M169.404,557.882H43.608c-1.301,0-2.2-0.899-2.2-2.2v-8.699c0-1.3,0.899-2.2,2.2-2.2h125.796c1.3,0,2.199,0.9,2.199,2.2v8.699
						C171.503,557.082,170.703,557.882,169.404,557.882L169.404,557.882z"/>
					
						<linearGradient id="SVGID_49_" gradientUnits="userSpaceOnUse" x1="38.1545" y1="139.3401" x2="59.8542" y2="139.3401" gradientTransform="matrix(1 0 0 -1 24.9536 586.6204)">
						<stop  offset="0" style="stop-color:#24F5AE"/>
						<stop  offset="1" style="stop-color:#29CDFF"/>
					</linearGradient>
					<path display="inline" fill="url(#SVGID_49_)" d="M67.506,451.685h13v-8.7h-13V451.685L67.506,451.685z M82.606,455.985H65.307
						c-1.3,0-2.2-0.9-2.2-2.2v-12.999c0-1.3,0.9-2.2,2.2-2.2h17.299c1.3,0,2.2,0.9,2.2,2.2v12.999
						C84.806,455.185,83.906,455.985,82.606,455.985L82.606,455.985z"/>
					
						<linearGradient id="SVGID_50_" gradientUnits="userSpaceOnUse" x1="38.1545" y1="115.4397" x2="59.8542" y2="115.4397" gradientTransform="matrix(1 0 0 -1 24.9536 586.6204)">
						<stop  offset="0" style="stop-color:#24F5AE"/>
						<stop  offset="1" style="stop-color:#29CDFF"/>
					</linearGradient>
					<path display="inline" fill="url(#SVGID_50_)" d="M67.506,475.484h13v-8.699h-13V475.484L67.506,475.484z M82.606,479.885
						H65.307c-1.3,0-2.2-0.9-2.2-2.2v-12.999c0-1.301,0.9-2.2,2.2-2.2h17.299c1.3,0,2.2,0.899,2.2,2.2v12.999
						C84.806,478.984,83.906,479.885,82.606,479.885L82.606,479.885z"/>
					
						<linearGradient id="SVGID_51_" gradientUnits="userSpaceOnUse" x1="70.696" y1="115.4397" x2="92.3958" y2="115.4397" gradientTransform="matrix(1 0 0 -1 24.9536 586.6204)">
						<stop  offset="0" style="stop-color:#24F5AE"/>
						<stop  offset="1" style="stop-color:#29CDFF"/>
					</linearGradient>
					<path display="inline" fill="url(#SVGID_51_)" d="M100.005,475.484h13v-8.699h-13V475.484L100.005,475.484z M115.205,479.885
						H97.806c-1.301,0-2.2-0.9-2.2-2.2v-12.999c0-1.301,0.899-2.2,2.2-2.2h17.299c1.3,0,2.2,0.899,2.2,2.2v12.999
						C117.305,478.984,116.505,479.885,115.205,479.885L115.205,479.885z"/>
					
						<linearGradient id="SVGID_52_" gradientUnits="userSpaceOnUse" x1="103.2185" y1="115.4397" x2="124.9187" y2="115.4397" gradientTransform="matrix(1 0 0 -1 24.9536 586.6204)">
						<stop  offset="0" style="stop-color:#24F5AE"/>
						<stop  offset="1" style="stop-color:#29CDFF"/>
					</linearGradient>
					<path display="inline" fill="url(#SVGID_52_)" d="M132.504,475.484h13v-8.699h-13V475.484L132.504,475.484z M147.703,479.885
						h-17.299c-1.3,0-2.2-0.9-2.2-2.2v-12.999c0-1.301,0.9-2.2,2.2-2.2h17.299c1.301,0,2.2,0.899,2.2,2.2v12.999
						C149.804,478.984,149.004,479.885,147.703,479.885L147.703,479.885z"/>
					
						<linearGradient id="SVGID_53_" gradientUnits="userSpaceOnUse" x1="70.696" y1="91.6404" x2="92.3958" y2="91.6404" gradientTransform="matrix(1 0 0 -1 24.9536 586.6204)">
						<stop  offset="0" style="stop-color:#24F5AE"/>
						<stop  offset="1" style="stop-color:#29CDFF"/>
					</linearGradient>
					<path display="inline" fill="url(#SVGID_53_)" d="M100.005,499.384h13v-8.699h-13V499.384L100.005,499.384z M115.205,503.683
						H97.806c-1.301,0-2.2-0.899-2.2-2.2v-12.999c0-1.3,0.899-2.2,2.2-2.2h17.299c1.3,0,2.2,0.9,2.2,2.2v12.999
						C117.305,502.884,116.505,503.683,115.205,503.683L115.205,503.683z"/>
					
						<linearGradient id="SVGID_54_" gradientUnits="userSpaceOnUse" x1="103.2185" y1="91.6404" x2="124.9187" y2="91.6404" gradientTransform="matrix(1 0 0 -1 24.9536 586.6204)">
						<stop  offset="0" style="stop-color:#24F5AE"/>
						<stop  offset="1" style="stop-color:#29CDFF"/>
					</linearGradient>
					<path display="inline" fill="url(#SVGID_54_)" d="M132.504,499.384h13v-8.699h-13V499.384L132.504,499.384z M147.703,503.683
						h-17.299c-1.3,0-2.2-0.899-2.2-2.2v-12.999c0-1.3,0.9-2.2,2.2-2.2h17.299c1.301,0,2.2,0.9,2.2,2.2v12.999
						C149.804,502.884,149.004,503.683,147.703,503.683L147.703,503.683z"/>
					
						<linearGradient id="SVGID_55_" gradientUnits="userSpaceOnUse" x1="38.1545" y1="91.6404" x2="59.8542" y2="91.6404" gradientTransform="matrix(1 0 0 -1 24.9536 586.6204)">
						<stop  offset="0" style="stop-color:#24F5AE"/>
						<stop  offset="1" style="stop-color:#29CDFF"/>
					</linearGradient>
					<path display="inline" fill="url(#SVGID_55_)" d="M67.506,499.384h13v-8.699h-13V499.384L67.506,499.384z M82.606,503.683
						H65.307c-1.3,0-2.2-0.899-2.2-2.2v-12.999c0-1.3,0.9-2.2,2.2-2.2h17.299c1.3,0,2.2,0.9,2.2,2.2v12.999
						C84.806,502.884,83.906,503.683,82.606,503.683L82.606,503.683z"/>
					
						<linearGradient id="SVGID_56_" gradientUnits="userSpaceOnUse" x1="70.696" y1="139.3401" x2="92.3958" y2="139.3401" gradientTransform="matrix(1 0 0 -1 24.9536 586.6204)">
						<stop  offset="0" style="stop-color:#24F5AE"/>
						<stop  offset="1" style="stop-color:#29CDFF"/>
					</linearGradient>
					<path display="inline" fill="url(#SVGID_56_)" d="M100.005,451.685h13v-8.7h-13V451.685L100.005,451.685z M115.205,455.985
						H97.806c-1.301,0-2.2-0.9-2.2-2.2v-12.999c0-1.3,0.899-2.2,2.2-2.2h17.299c1.3,0,2.2,0.9,2.2,2.2v12.999
						C117.305,455.185,116.505,455.985,115.205,455.985L115.205,455.985z"/>
					
						<linearGradient id="SVGID_57_" gradientUnits="userSpaceOnUse" x1="103.2185" y1="139.3401" x2="124.9187" y2="139.3401" gradientTransform="matrix(1 0 0 -1 24.9536 586.6204)">
						<stop  offset="0" style="stop-color:#24F5AE"/>
						<stop  offset="1" style="stop-color:#29CDFF"/>
					</linearGradient>
					<path display="inline" fill="url(#SVGID_57_)" d="M132.504,451.685h13v-8.7h-13V451.685L132.504,451.685z M147.703,455.985
						h-17.299c-1.3,0-2.2-0.9-2.2-2.2v-12.999c0-1.3,0.9-2.2,2.2-2.2h17.299c1.301,0,2.2,0.9,2.2,2.2v12.999
						C149.804,455.185,149.004,455.985,147.703,455.985L147.703,455.985z"/>
					
						<linearGradient id="SVGID_58_" gradientUnits="userSpaceOnUse" x1="79.3538" y1="52.5403" x2="101.054" y2="52.5403" gradientTransform="matrix(1 0 0 -1 24.9536 586.6204)">
						<stop  offset="0" style="stop-color:#24F5AE"/>
						<stop  offset="1" style="stop-color:#29CDFF"/>
					</linearGradient>
					<path display="inline" fill="url(#SVGID_58_)" d="M108.705,544.883h12.999v-21.699h-12.999V544.883L108.705,544.883z
						 M123.805,549.282h-17.3c-1.3,0-2.2-0.9-2.2-2.2v-25.999c0-1.3,0.9-2.2,2.2-2.2h17.3c1.3,0,2.199,0.9,2.199,2.2v25.999
						C126.004,548.383,125.105,549.282,123.805,549.282L123.805,549.282z"/>
					
						<linearGradient id="SVGID_59_" gradientUnits="userSpaceOnUse" x1="62.0222" y1="52.5403" x2="83.7049" y2="52.5403" gradientTransform="matrix(1 0 0 -1 24.9536 586.6204)">
						<stop  offset="0" style="stop-color:#24F5AE"/>
						<stop  offset="1" style="stop-color:#29CDFF"/>
					</linearGradient>
					<path display="inline" fill="url(#SVGID_59_)" d="M91.306,544.883h12.999v-21.699H91.306V544.883L91.306,544.883z
						 M106.505,549.282H89.106c-1.3,0-2.2-0.9-2.2-2.2v-25.999c0-1.3,0.9-2.2,2.2-2.2h17.3c1.3,0,2.199,0.9,2.199,2.2v25.999
						C108.705,548.383,107.805,549.282,106.505,549.282L106.505,549.282z"/>
					
						<linearGradient id="SVGID_60_" gradientUnits="userSpaceOnUse" x1="66.3547" y1="74.2405" x2="96.7091" y2="74.2405" gradientTransform="matrix(1 0 0 -1 24.9536 586.6204)">
						<stop  offset="0" style="stop-color:#24F5AE"/>
						<stop  offset="1" style="stop-color:#29CDFF"/>
					</linearGradient>
					<path display="inline" fill="url(#SVGID_60_)" d="M119.505,514.583H93.506c-1.301,0-2.2-0.899-2.2-2.199s0.899-2.2,2.2-2.2
						h25.999c1.3,0,2.199,0.9,2.199,2.2S120.805,514.583,119.505,514.583L119.505,514.583z"/>
				</g>
				<g display="none" clip-path="url(#SVGID_27_)">
					<g display="inline">
						<g>
							
								<linearGradient id="SVGID_61_" gradientUnits="userSpaceOnUse" x1="665.9543" y1="516.7908" x2="788.3538" y2="516.7908" gradientTransform="matrix(1 0 0 -1 24.9536 586.6204)">
								<stop  offset="0" style="stop-color:#24F5AE"/>
								<stop  offset="1" style="stop-color:#29CDFF"/>
							</linearGradient>
							<path fill="url(#SVGID_61_)" d="M813.281,88.897c0,7.399-3,14.199-8.5,19.299c-0.6,0.601-1.399,0.9-2.3,0.9
								c-1,0-1.8-0.4-2.5-1.1c-1.3-1.4-1.2-3.5,0.2-4.8c4-3.801,6.3-8.8,6.3-14.3c0-7.3-4-13.899-10.499-17.399
								c-1.101-0.601-1.801-1.7-1.801-3v-6c0-13.8-11.299-25.099-25.099-25.099c-12.3,0-22.899,9.1-24.8,21.199
								c-0.199,1.3-1.1,2.399-2.399,2.699c-1.3,0.4-2.6,0-3.5-1c-2.6-2.899-6.3-4.6-10.1-4.6c-7.5,0-13.499,6.1-13.499,13.5v8.8
								c0,1.899-1.5,3.399-3.4,3.399c-7.6,0-13.699,6.1-13.699,13.5c0,0.399,0,0.899,0.1,1.3c0.2,1.899-1.2,3.5-3.1,3.699
								c-1.9,0.2-3.5-1.199-3.7-3.1c-0.1-0.6-0.1-1.3-0.1-2c0-9.399,6.699-17.699,15.999-19.799h1.1v-5.7
								c0-11.199,9.1-20.299,20.3-20.299c3.2,0,6.399,0.8,9.2,2.199l1.499,0.801l0.601-1.5c1.899-4.601,4.899-8.8,8.699-12.1
								c5.8-5,13.2-7.8,20.899-7.8c17.6,0,31.899,14.299,31.899,31.898v4.1l0.699,0.5C808.982,71.998,813.281,80.197,813.281,88.897
								z"/>
							
								<linearGradient id="SVGID_62_" gradientUnits="userSpaceOnUse" x1="757.2991" y1="450.4412" x2="779.2891" y2="450.4412" gradientTransform="matrix(1 0 0 -1 24.9536 586.6204)">
								<stop  offset="0" style="stop-color:#24F5AE"/>
								<stop  offset="1" style="stop-color:#29CDFF"/>
							</linearGradient>
							<path fill="url(#SVGID_62_)" d="M804.182,149.695c0,1.9-1.5,3.399-3.4,3.399h-15.199c-1.399,0-2.699-0.899-3.199-2.199
								s-0.101-2.8,0.899-3.8c0.101-0.101,3.5-3.2,7-7c5.8-6.399,6.6-9.2,6.8-9.899v-0.101v-0.1c0-2.1-1.8-3.9-3.9-3.9h-0.199
								c-2.101,0-4,1.801-4,4c0,1.9-1.5,3.4-3.4,3.4c-1.899,0-3.399-1.5-3.399-3.4c0-5.899,4.8-10.8,10.699-10.8h0.2
								c5.899,0,10.8,4.8,10.8,10.8c0,2.101-0.8,5.9-7.7,13.7l-2.199,2.5h6.799C802.682,146.296,804.182,147.795,804.182,149.695z"
								/>
							
								<linearGradient id="SVGID_63_" gradientUnits="userSpaceOnUse" x1="714.6545" y1="457.9392" x2="746.9543" y2="457.9392" gradientTransform="matrix(1 0 0 -1 24.9536 586.6204)">
								<stop  offset="0" style="stop-color:#24F5AE"/>
								<stop  offset="1" style="stop-color:#29CDFF"/>
							</linearGradient>
							<path fill="url(#SVGID_63_)" d="M755.684,104.197c-8.9,0-16.1,7.199-16.1,16.099v16.7c0,8.899,7.199,16.199,16.1,16.199
								c8.899,0,16.199-7.3,16.199-16.199v-16.7C771.883,111.396,764.683,104.197,755.684,104.197z M765.083,136.996
								c0,5.199-4.2,9.3-9.3,9.3c-5.2,0-9.3-4.2-9.3-9.3v-16.7c0-5.199,4.2-9.299,9.3-9.299c5.2,0,9.3,4.199,9.3,9.299V136.996z"/>
							
								<linearGradient id="SVGID_64_" gradientUnits="userSpaceOnUse" x1="672.7542" y1="458.0408" x2="704.7965" y2="458.0408" gradientTransform="matrix(1 0 0 -1 24.9536 586.6204)">
								<stop  offset="0" style="stop-color:#24F5AE"/>
								<stop  offset="1" style="stop-color:#29CDFF"/>
							</linearGradient>
							<path fill="url(#SVGID_64_)" d="M729.084,138.095c0.5,0.8,0.6,1.7,0.4,2.6c-1.7,7.3-8.2,12.399-15.7,12.399
								c-8.899,0-16.099-7.299-16.099-16.199v-16.699c0-8.899,7.199-16.1,16.099-16.1c3.8,0,7.4,1.3,10.3,3.6
								c2.9,2.301,4.8,5.601,5.6,9.2c0.2,0.899,0,1.8-0.5,2.5c-0.5,0.8-1.3,1.3-2.199,1.5c-1.8,0.399-3.6-0.9-4-2.7
								c-0.9-4.3-4.6-7.3-9.2-7.3c-5.1,0-9.3,4.2-9.3,9.3v16.8c0,5.199,4.2,9.3,9.3,9.3c4.4,0,8.101-3,9.1-7.2
								c0.4-1.5,1.7-2.6,3.3-2.6c0.301,0,0.5,0,0.801,0.1C727.884,136.796,728.684,137.395,729.084,138.095z"/>
						</g>
					</g>
				</g>
				
					<linearGradient id="SVGID_65_" gradientUnits="userSpaceOnUse" x1="351.759" y1="482.3406" x2="482.3571" y2="482.3406" gradientTransform="matrix(1 0 0 -1 24.9536 586.6204)">
					<stop  offset="0" style="stop-color:#24F5AE"/>
					<stop  offset="1" style="stop-color:#29CDFF"/>
				</linearGradient>
				<path display="none" clip-path="url(#SVGID_27_)" fill="url(#SVGID_65_)" d="M504.291,136.695
					c-3.499-5.499-12.099-8.799-22.099-12.699l-0.5-0.2c-2.4-0.899-5-1.899-7.5-3c-7.199-3-11.199-4.899-13.1-5.8l-0.1-8.199
					c1.6-1.9,4.199-5.8,5.6-13c0.5-0.2,1-0.5,1.4-0.8c2.999-2.1,4.899-6.3,5.1-9.1c0-0.9,0.3-8.399-3.3-11.5
					c-0.101-0.1-0.2-0.199-0.3-0.199c0.699-5.4,0.8-8.7,0.6-10.9c-1.1-11.199-11.899-22.699-28.199-22.699
					s-27.099,11.5-28.199,22.699c-0.2,2.2,0,5.4,0.601,10.9c-0.101,0.1-0.2,0.199-0.301,0.199c-3.8,3.301-3.3,11.5-3.3,11.5
					c0.2,2.8,2.101,7,5.101,9.1c0.5,0.3,0.899,0.6,1.399,0.8c1.3,7.2,4,11.1,5.6,13l-0.1,8.199c-1.9,0.9-5.8,2.8-13.1,5.8
					c-2.4,1-4.899,2-7.3,2.9l-0.8,0.3c-10,3.9-18.499,7.2-22.1,12.699c-3.6,5.7-3.1,26-2.899,32.1v1l7.1-0.3v-1
					c-0.5-11.5,0.101-25.5,1.8-27.999c2.3-3.5,10.6-6.8,18.699-9.9c2.7-1,5.4-2.1,8.1-3.199c12.2-5.101,15.399-7,15.7-7.2l1.699-1
					l0.101-13.8v-1.699l-1.3-1.101c-0.2-0.1-3.601-3.3-4.8-12.3l-0.4-4.1l-3.6,1c-0.601-0.5-1.9-2.5-2-3.7
					c-0.101-1.999,0.3-4.199,0.6-5.199l3.9,0.8l-0.601-4.899c-0.5-4-1.199-9.7-1-12.2c0.8-8,8.9-16.299,21.1-16.299
					s20.399,8.299,21.1,16.299c0.199,2.4-0.4,8.1-1,12.2l-0.5,4.699l3.699-0.6c0.4,1,0.801,3.2,0.601,5.3c-0.101,1.2-1.3,3.2-2,3.7
					l-3.6-1l-0.5,4.1c-1.2,9.1-4.7,12.3-4.7,12.3l-1.4,1.1l0.101,15.6l1.7,1c0.3,0.2,3.6,2.1,15.699,7.199
					c2.8,1.2,5.6,2.2,8.199,3.2c8.1,3.1,16.399,6.399,18.7,9.899c1.6,2.5,2.199,16.5,1.8,27.999v1l6.999,0.301v-1
					C507.291,164.495,507.991,142.595,504.291,136.695z"/>
			</g>
		</g>
	</g>
</g>
</svg>
