<?xml version="1.0" encoding="utf-8"?>
<!-- Generator: Adobe Illustrator 18.0.0, SVG Export Plug-In . SVG Version: 6.00 Build 0)  -->
<!DOCTYPE svg PUBLIC "-//W3C//DTD SVG 1.1//EN" "http://www.w3.org/Graphics/SVG/1.1/DTD/svg11.dtd">
<svg version="1.1" id="Capa_1" xmlns="http://www.w3.org/2000/svg" xmlns:xlink="http://www.w3.org/1999/xlink" x="0px" y="0px"
	 viewBox="0 0 283.5 283.5" enable-background="new 0 0 283.5 283.5" xml:space="preserve">
<linearGradient id="SVGID_1_" gradientUnits="userSpaceOnUse" x1="9.1041" y1="141.73" x2="274.3559" y2="141.73">
	<stop  offset="0" style="stop-color:#24F5AE"/>
	<stop  offset="1" style="stop-color:#29CDFF"/>
</linearGradient>
<path display="none" fill="url(#SVGID_1_)" d="M268.2,207.8c-7.1-11.1-24.6-17.9-44.9-25.7l-1.1-0.4c-5-1.9-10.1-3.9-15.2-6
	c-14.7-6.2-22.7-9.9-26.6-11.8l-0.2-16.7c3.3-3.8,8.6-11.9,11.3-26.4c1-0.4,2-1,2.9-1.6c6-4.2,10-12.7,10.4-18.6
	c0.1-1.7,0.6-17.1-6.7-23.4c-0.2-0.2-0.4-0.3-0.6-0.5c1.3-11,1.7-17.7,1.3-22c-2.2-22.7-24.2-46.1-57.2-46.1
	c-33,0-55,23.4-57.2,46.1c-0.4,4.4-0.1,11,1.3,22.1c-0.2,0.2-0.4,0.3-0.6,0.5c-7.7,6.7-6.7,23.4-6.7,23.4
	c0.4,5.8,4.3,14.3,10.4,18.5c0.9,0.7,1.9,1.2,2.9,1.6c2.7,14.6,8,22.6,11.4,26.4l-0.2,16.7c-3.8,1.9-11.7,5.6-26.6,11.8
	c-4.9,2.1-9.9,4-14.7,5.9l-1.6,0.6c-20.2,7.9-37.7,14.6-44.8,25.7C7.9,219.3,9,260.6,9.5,273l0.1,2l14.3-0.6l-0.1-2
	c-0.9-23.3,0.3-51.7,3.6-56.9c4.6-7.2,21.6-13.8,38-20.1c5.4-2.1,11-4.2,16.5-6.6c24.7-10.3,31.3-14.1,31.9-14.5l3.4-2.1l0.3-28.1
	l-0.1-3.4l-2.6-2.2c-0.3-0.3-7.3-6.7-9.6-25l-0.9-8.4l-7.4,2.1c-1.3-1-3.9-5.1-4.1-7.6c-0.2-4.1,0.5-8.5,1.3-10.7l7.9,1.7l-1.3-10
	c-1.1-8.2-2.5-19.7-2-24.7c1.6-16.3,18-33.1,42.9-33.1c24.9,0,41.3,16.9,42.9,33.2c0.5,5-0.9,16.5-2,24.7l-0.9,9.4l7.5-1.2
	c0.8,2.1,1.6,6.5,1.3,10.7c-0.1,2.4-2.7,6.4-4,7.6l-7.2-2.1l-1.1,8.3c-2.4,18.5-9.5,25-9.5,25l-2.8,2.2l0.3,31.6l3.4,2.1
	c0.7,0.4,7.2,4.2,31.9,14.5c5.7,2.4,11.3,4.6,16.6,6.6c16.4,6.4,33.4,13,38,20.1c3.3,5.2,4.5,33.6,3.6,56.9l-0.1,2l14.3,0.6l0.1-2
	C274.4,264.2,275.8,219.7,268.2,207.8z"/>
<g>
	<g>
		<linearGradient id="SVGID_2_" gradientUnits="userSpaceOnUse" x1="24.9359" y1="221.742" x2="258.5241" y2="221.742">
			<stop  offset="0" style="stop-color:#24F5AE"/>
			<stop  offset="1" style="stop-color:#29CDFF"/>
		</linearGradient>
		<path fill="url(#SVGID_2_)" d="M205.5,168.5H77.9c-29.2,0-53,24-53,53.5v47.8c0,2.8,2.3,5.1,5.1,5.1h223.3c2.8,0,5.1-2.3,5.1-5.1
			V222C258.5,192.5,234.8,168.5,205.5,168.5z M168.3,178.8l-1.3,3.8c-3.8,10.7-13.9,17.8-25.2,17.8c-11.3,0-21.4-7.2-25.2-17.8
			l-1.3-3.8H168.3z M248.2,264.7h-29.6V238c0-2.8-2.3-5.1-5.1-5.1c-2.8,0-5.1,2.3-5.1,5.1v26.8H75.1V238c0-2.8-2.3-5.1-5.1-5.1
			c-2.8,0-5.1,2.3-5.1,5.1v26.8H35.2V222c0-23.8,19.2-43.2,42.7-43.2h27l0.5,2.3c3.5,17.2,18.8,29.6,36.3,29.6
			c17.5,0,32.8-12.5,36.3-29.6l0.5-2.3h27c23.5,0,42.7,19.4,42.7,43.2V264.7z"/>
	</g>
	<g>
		<linearGradient id="SVGID_3_" gradientUnits="userSpaceOnUse" x1="88.7343" y1="85.6424" x2="194.7257" y2="85.6424">
			<stop  offset="0" style="stop-color:#24F5AE"/>
			<stop  offset="1" style="stop-color:#29CDFF"/>
		</linearGradient>
		<path fill="url(#SVGID_3_)" d="M157.7,8.5h-31.9c-20.4,0-37,16.6-37,37v64.3c0,29.2,23.8,53,53,53s53-23.8,53-53V45.5
			C194.7,25.1,178.1,8.5,157.7,8.5z M184.4,109.8c0,23.5-19.2,42.7-42.7,42.7c-23.5,0-42.7-19.2-42.7-42.7V84.5l4.5,3.2
			C113.6,95,127.2,99,141.7,99c14.6,0,28.2-4,38.2-11.3l4.5-3.2V109.8z M99.2,67.1h85.1l-2.6,4.3c-6.3,10.3-22.4,17.3-39.9,17.3
			c-17.6,0-33.6-7-39.9-17.3L99.2,67.1z M184.4,56.8H99V45.5c0-14.7,12-26.8,26.8-26.8h31.9c14.8,0,26.8,12,26.8,26.8V56.8z"/>
	</g>
</g>
</svg>
